<?xml version="1.0" encoding="utf-8"?>
<!-- Generator: Adobe Illustrator 16.0.0, SVG Export Plug-In . SVG Version: 6.00 Build 0)  -->
<!DOCTYPE svg PUBLIC "-//W3C//DTD SVG 1.1//EN" "http://www.w3.org/Graphics/SVG/1.1/DTD/svg11.dtd">
<svg version="1.1" id="Layer_1" xmlns="http://www.w3.org/2000/svg" xmlns:xlink="http://www.w3.org/1999/xlink" x="0px" y="0px"
	 width="800px" height="600px" viewBox="0 -689 800 600" enable-background="new 0 -689 800 600" xml:space="preserve">
<rect x="-39" y="-46" fill="#7845FF" width="871" height="672"/>
<rect x="913" y="-46" fill="#7845FF" width="871" height="672"/>
<path fill="#50DCB1" d="M198,397.9c-4.3,0.9-8.3,1-12,0.3l-0.1,0.2l2.4,0.2l-21,1c-0.4,1.6-1.1,3.3-2,4.9c-0.9,1.6-1.5,3.2-1.8,4.9
	c3.8-0.4,6.7-0.6,8.7-0.5c2,0.1,3.5,0.1,4.5-0.1s2-0.4,2.9-0.6c2.2-0.5,4.1-0.2,5.9,0.9c0.8,0.5,1.3,1.6,1.5,3.1
	c0.2,1.5,0.6,2.6,1.1,3.2c2.5,1.6,4.1,3.5,4.9,5.8c0.8,2.3,0.8,4.5,0.1,6.5c-0.7,2.1-2.1,3.9-4.3,5.4c-2.1,1.5-5,2.3-8.7,2.5
	c-3.7,0.2-7.6,0.6-11.8,1.3c-4.2,0.7-8.3,1.1-12.2,1.3l-2.5,15.4c-1.9,3.3-5.1,4.9-9.4,4.7c-1.7-0.1-3.3-0.7-4.7-1.8s-2.4-2.8-2.7-5
	h-0.2c0-0.2,0-0.4,0.1-0.6c-0.3-1.4-0.5-2.8-0.6-4.2l-0.5-4c-0.7,0-1.4,0-2,0.1l-2.2,0.3l-14.4,2.2c-0.2,0-0.3,0-0.4,0
	s0-0.1,0.1-0.1l-4.7,0.7c-0.8,2.8-1.8,5.8-3,8.9c-1.2,3.1-1.8,6.6-2,10.6c-2,3.2-5.1,4.9-9,5.2c-1.8,0.2-3.4-0.2-4.8-1.1
	s-2.4-2.5-2.8-4.6h-0.2c0-0.2,0-0.4,0.1-0.5v-0.3c0.2-3.1,0.3-7.8,0.4-14.2c-1.9,0.6-3.1,1.1-3.5,1.4c-0.8,0.5-2.1,0.9-3.8,1.2
	c-1.8,0.3-3.3,0-4.7-0.6c-1.3-0.7-2.3-1.7-2.9-3c-1.4-3.1-0.1-6.7,3.8-10.7c1.9-1.9,3.3-3.1,4.4-3.6c1-0.5,2.1-0.9,3.2-1.2
	c1.1-0.3,2.5-0.8,4.3-1.5c0.1-3.4,0.2-6.9,0.3-10.5c0.1-3.6,0.3-7.3,0.5-10.9c-8.4,2.1-14.9,2.3-19.7,0.4c-2.2-1.5-3.1-3.1-2.7-4.6
	c0.3-1.5,1.4-3.3,3.2-5.3c5.5-4,12.5-7.7,20.8-11l0.8-6.6c1-11.1,2.1-18.7,3.3-22.8c1.1-4.1,3-7.6,5.7-10.3c2.6-2.7,5.5-4.7,8.6-6.1
	c3.1-1.3,6.2-1.9,9.4-1.7c3.2,0.2,6,1,8.3,2.5c5.5,3.3,7.6,9.2,6.1,17.4l-4.6,13.2l11.1-4.6c0.2-1.1,0.4-2.1,0.7-3
	c0.3-0.9,0.5-1.9,0.7-2.8c0.6-2.8,0.8-5.4,0.7-7.8c0.4-4.5,1.9-8.2,4.4-11.3c2.5-3.1,5.4-5.5,8.7-7.4c3.3-1.9,6.7-3.1,10.2-3.8
	c3.5-0.7,6.3-0.9,8.3-0.7s3.7,0.7,5,1.4c1.3,0.7,2.3,1.6,3.1,2.8c1.8,2.5,1.7,5.5-0.2,9c0,3.5-1,8.2-2.9,14.2h3.9
	c2.4,0.4,4.3,0.7,5.9,0.9s3.1,0.9,4.7,2c1.5,1.1,2.8,1.8,3.6,2.2c0.9,0.4,1.6,0.8,2.1,1.4c1,1.1,0.9,3.3-0.2,6.5
	c3.8,4.8,5.3,9.5,4.6,14.1C204.9,393.2,202.3,396.3,198,397.9z M117.9,422.4c6.3-2.5,12.6-4.7,18.8-6.5c0.3-2.2,0.7-4.8,1.2-7.6
	s1-5.3,1.3-7.6l-16.7,2.9L117.9,422.4z M188.6,398.6c0.7-0.1,1.4-0.1,2,0c0.6,0.1,1,0.1,1.3,0.2c0.3,0,0.3,0,0.1,0.1
	C191,398.9,189.9,398.8,188.6,398.6z"/>
<path fill="#E1E1E1" d="M209.6,354.8c-0.8-2-0.7-3.9,0.1-5.9c0.8-2,2.4-4.1,4.9-6.3c2.4-2.2,4.7-3.6,6.8-4.2l0.1-0.2
	c0.5-0.3,1-0.6,1.4-1c0.4-0.4,0.9-0.7,1.4-1.1c3.9-4.2,7.4-8.9,10.4-13.8c0.1-0.1,0.1-0.2,0.1-0.3s0.1-0.3,0.3-0.5
	c1.1-3.5,3.4-6.3,6.9-8.3s7-3.2,10.5-3.4c3.4-0.2,6.6,0.4,9.6,2c3,1.5,5,4.1,6,7.7c-0.1,3-1.1,6.6-3,11.1c0.8,1.3,1.8,2.8,3,4.5
	c1.2,1.7,1.7,3.5,1.3,5.5c-2.1,5.8-4.1,11.6-6.2,17.5c-2.1,5.8-3.8,10.9-5.1,15.3c-1.3,4.4-2.4,8.3-3.4,11.8s-2,7.1-3.1,10.7
	c-3.5,13-5.9,23.6-7.3,31.7c-1.3,8.1-2.9,14.7-4.7,19.9l0.1,0.5h-0.2c-0.7,2.5-2.2,4.4-4.8,5.8c-2.5,1.4-5.2,2.1-8,2.2
	c-2.8,0.1-5.4-0.6-7.6-1.9c-2.3-1.3-3.4-3.4-3.5-6.3c-0.1-2.9,0-5.7,0.3-8.4c0.3-2.7,0.6-7.7,1-14.9c0.8-14.5,3.3-35.1,7.3-61.8
	c-3.1-0.1-6.1-0.9-9-2.4C212.2,358.6,210.3,356.8,209.6,354.8z"/>
<path fill="#E1E1E1" d="M271.8,347.6c-0.8-2-0.7-3.9,0.1-5.9c0.8-2,2.4-4.1,4.9-6.3c2.4-2.2,4.7-3.6,6.8-4.2l0.1-0.2
	c0.5-0.3,1-0.6,1.4-1s0.9-0.7,1.4-1.1c3.9-4.2,7.4-8.9,10.4-13.8c0.1-0.1,0.1-0.2,0.1-0.3c0-0.1,0.1-0.3,0.3-0.5
	c1.1-3.5,3.4-6.3,6.9-8.3s7-3.2,10.5-3.4c3.4-0.2,6.6,0.4,9.6,2c3,1.5,5,4.1,6,7.7c-0.1,3-1.1,6.6-3,11.1c0.8,1.3,1.8,2.8,3,4.5
	c1.2,1.7,1.7,3.5,1.3,5.5c-2.1,5.8-4.1,11.6-6.2,17.5c-2.1,5.8-3.8,10.9-5.1,15.3c-1.3,4.4-2.4,8.3-3.4,11.8s-2,7.1-3.1,10.7
	c-3.5,13-5.9,23.6-7.3,31.7c-1.3,8.1-2.9,14.7-4.7,19.9l0.1,0.5h-0.2c-0.7,2.5-2.2,4.4-4.8,5.8c-2.5,1.4-5.2,2.1-8,2.2
	c-2.8,0.1-5.4-0.6-7.6-1.9c-2.3-1.3-3.4-3.4-3.5-6.3c-0.1-2.9,0-5.7,0.3-8.4c0.3-2.7,0.6-7.7,1-14.9c0.8-14.5,3.3-35.1,7.3-61.8
	c-3.1-0.1-6.1-0.9-9-2.4C274.4,351.3,272.6,349.5,271.8,347.6z"/>
<path fill="#E1E1E1" d="M391,423.8c-2.3,4.4-6.4,7.6-12.3,9.6c-5.9,1.9-10.7,1.9-14.5-0.2c-4.5-2.2-5.8-6.7-4.1-13.6
	c1.4-3.3,2.7-6.4,3.8-9.2c1.1-2.8,2.3-5.6,3.6-8.4c3-6.4,6.4-12.7,9.9-19c-10.8,4.1-20.1,3.9-28-0.5c-8.1-4.5-12.9-11.7-14.5-21.6
	c-0.8-5-0.4-10.4,1.1-16.5c1.5-6,3.8-11.9,6.9-17.8c3.1-5.8,6.9-11,11.3-15.5c9.7-9.9,20.5-14.9,32.3-15.1
	c9.6-0.4,16.2-0.2,19.8,0.5c8.4,1.5,12,5.4,11,11.5c-0.4,2-0.2,3.4,0.6,4.2c0.8,0.8,1.7,1.5,2.8,2.1c1.1,0.7,2.1,1.7,2.9,3
	c0.9,1.3,1.3,3.6,1.3,6.9c-0.5,26.6-7.1,52.3-19.9,77.1C400.8,409.4,396.2,416.9,391,423.8z M391.8,326.2c-0.2-1.8-1.8-2.6-4.9-2.6
	c-3.7,0.5-7.1,2.7-10.1,6.5c-3.1,4.1-4.9,8.4-5.3,12.6c-0.5,4.8,0.8,7.4,3.7,7.8c3.2,0.6,6.3-0.6,9.2-3.6c3.4-3.4,5.5-8.3,6.3-14.6
	c0.2-1.3,0.4-2.4,0.7-3.5C391.7,327.8,391.8,326.9,391.8,326.2z"/>
<path fill="#E1E1E1" d="M521,339.8c0.1,4.5-0.2,9.2-0.8,14c-0.6,4.8-1.8,9.6-3.5,14.3c-1.7,4.7-3.9,9.3-6.4,13.8
	c-2.6,4.5-5.5,8.7-8.9,12.7c-3.3,4-7,7.4-10.9,10.3c-8.5,6.5-17.1,9.4-25.8,8.9c-1.4,4.3-3.9,7.2-7.4,8.7c-3.6,1.5-7.2,1.9-10.9,1.3
	c-3.7-0.7-7.1-2.4-10.1-5c-3.1-2.7-4.9-6.7-5.5-11.9c-0.6-5.2-0.9-10.7-0.8-16.2c0.1-5.6,0.5-11,1.1-16.2c1-8.6,2.5-16.8,4.5-24.5
	c4.9-17.5,7.4-29.7,7.6-36.5c0.3-9.2,2.1-15.1,5.5-17.7c5.6-4.2,11.1-6.4,16.6-6.5s10.5,0.6,15.1,2.2c7.6,2.6,16,7.4,25.2,14.6
	C515.7,313.6,520.8,324.9,521,339.8z M465.3,393.7c5-3.3,8.9-6.6,11.9-9.8c2.9-3.2,5.7-6.2,8.3-8.9c3.9-5,6.6-10.7,8-17
	c3-14-1.1-23.9-12.3-29.6c-1.7-1-4.2-2.2-7.5-3.8c-1.1,3.5-1.7,7.1-2,10.8c-0.3,3.7-0.7,7.3-1.5,10.9l-2.6,14.2l-1.7,15.2
	c0,2.1,0,4.1-0.2,6.1s-0.3,4-0.4,6.1V393.7z"/>
<path fill="#E1E1E1" d="M597.8,287.9c3.7,1.5,6.3,3.9,7.7,7.5c-0.7,11.9-1.2,23.6-1.6,35.3c-0.3,11.7-0.8,21.4-1.5,29.4
	c-0.7,7.9-1,13.8-1.2,17.7c-0.1,3.9-0.3,7.8-0.6,11.7l-0.6,3.4c-0.1,1.2-0.2,2.3-0.2,3.3c-0.1,1-0.2,2.1-0.2,3.3
	c-2.5,3.7-6.3,5.8-11.2,6.4c-5.3,0.6-9.7-0.2-13.1-2.6c-2-1.2-2.7-4.3-2-9.1c0.3-1.9,0.4-4.4,0.2-7.4s-0.3-5.5-0.3-7.5V379
	c-3,1.5-5.6,3.3-7.9,5.4c-2.3,2.1-3.7,3.4-4.3,4c-0.6,0.5-1.4,1-2.4,1.4c-1,0.4-1.9,0.7-2.7,0.9c-2,0.3-3.3,0.8-3.9,1.4
	c-4.8,11.5-9.4,18.1-14.1,20c-2.9,1.3-5.9,1.9-8.9,1.8c-3.1-0.1-5.7-1.6-7.8-4.5c-3.7-2.7-3.8-11.3-0.5-25.8
	c1.8-7.7,4.7-17,8.5-27.9c3.8-10.9,7.6-20.5,11.4-28.7c8.1-17.7,17.6-32.9,28.3-45.6c1.9-1.1,3.9-2.3,6-3.6c2.2-1.4,4.3-2.2,6.6-2.6
	c2.2-0.4,4.6-0.4,7,0c2.5,0.3,4.6,1,6.4,2.1C598.9,279.5,599.9,283.1,597.8,287.9z M569.2,332.8c-1.5,6.5-3,12.5-4.5,18
	c-1.6,5.5-2.9,10.3-4,14.4l12.2-1.9c0.1-6.7,0.2-13.4,0.5-20.1c0.3-6.7,0.5-13.3,0.7-20L569.2,332.8z M568.7,364.4
	c1.5-0.2,2.9-0.4,4.3-0.8v-0.2c-1.3,0.3-2.6,0.5-3.7,0.8C568.1,364.4,567.9,364.5,568.7,364.4z"/>
<path fill="#E1E1E1" d="M623.6,332.1c-3.5-14.8-5.7-27-6.5-36.5c-0.7-4.4,0.6-8.9,4-13.4c3.2-4.3,6.7-6.8,10.6-7.7
	c4.3-0.8,7.4,1.3,9.3,6.3c1.2,2.8,2.6,6.1,4.3,9.8c1.7,3.7,3.4,7.6,5,11.7c1-1.7,2.5-4.7,4.5-8.9c2-4.2,4-8,5.8-11.4
	c4.4-8.2,8.5-14,12.2-17.5c3.8-2,7.1-2.9,10-2.5c2.9,0.3,5.1,1.2,6.6,2.5s2.2,3.4,2.2,6.2c0.6,6.6-3.2,17.4-11.3,32.6
	c-1.9,3.5-3.8,7.5-5.6,12s-4,9.6-6.4,15.2c-2.4,5.6-4.8,11.2-7,16.7c-5.1,12.5-8.8,24.2-11.2,35.2c0.1-0.2,0.5,0,1.3,0.6
	c0.8,0.6,1.6,1.5,2.4,2.6c2,2.9,2.2,5.5,0.4,7.8c-4.4,5.8-10.2,9.4-17.5,10.9c-6.7,1.3-12.6,0.7-17.9-1.7c-5.2-2.2-7.2-5.5-6-9.9
	l-0.5,0.1c1.6-6.2,3.5-12.1,5.8-17.6c2.3-5.6,4.7-11.4,7.1-17.3l5.5-13.3c-1.7,0.6-3.3-0.5-4.8-3.2C624.8,339,624,335.9,623.6,332.1
	z"/>
<path fill="#E1E1E1" d="M715.1,390.3c-5.3,0.8-10.2,0.7-14.8-0.2c-4.6-1-8.4-2.6-11.5-4.9c-3.1-2.3-5.1-5.1-6.3-8.5
	c-1.1-3.4-0.9-7,0.6-10.9c2.2-4.7,7.4-6.6,15.7-5.8c6.3,0.5,10.6,0.7,12.9,0.5s4.3-0.7,5.9-1.6c7.3-3.4,11.2-6.6,11.8-9.6
	c0.4-2.3-1.3-4.6-4.9-7.2c-1.5-1.1-3.1-2.2-4.9-3.2c-1.8-1.1-3.4-2.1-4.6-3.2c-5.6-3.2-10.2-7.2-13.8-11.9c-3.5-4.7-5.4-10-5.6-16
	c-0.2-6,0.2-11,1.2-15.1c1-4.1,2.4-7.7,4.2-11c3.2-5.7,7.7-10.6,13.4-14.7c6.6-4.5,12-7.5,16.1-9c8.2-2.9,16.7-4,25.5-3.5
	c3,0.2,5.6,0.9,7.8,2.1c2.2,1.2,4.5,2.5,6.8,3.8c4.1,3.2,5.4,6.8,3.9,10.7c-0.5,1.7-1.5,3.2-3,4.4c-1.4,1.2-3,2-4.8,2.3
	c0.5,2.8,0.3,4.9-0.8,6.4c-2.1,2.7-6.1,4.7-11.9,6.1c-8.6,0.4-14.3,1.5-17.1,3.4c-3.3,2.3-4.1,6.5-2.5,12.6c0.4,1.3,1.4,2.6,3.1,3.9
	s3.6,2.6,5.8,4.1c2.2,1.4,4.6,3,7,4.9c2.5,1.8,4.7,4,6.7,6.5c6.9,8.9,7.8,20.1,2.5,33.6c-3.9,10.1-11.5,18.3-23,24.5
	C730.8,387.2,723.6,389.3,715.1,390.3z"/>
<g>
	<path fill="#E1E1E1" d="M457.3,150.2v88.2c0,2.4-0.9,4.5-2.6,6.2c-1.7,1.7-3.8,2.6-6.2,2.6h-97c-2.4,0-4.5-0.9-6.2-2.6
		c-1.7-1.7-2.6-3.8-2.6-6.2v-88.2c0-2.4,0.9-4.5,2.6-6.2s3.8-2.6,6.2-2.6h8.8v-6.6c0-3,1.1-5.6,3.2-7.8c2.2-2.2,4.8-3.2,7.8-3.2h4.4
		c3,0,5.6,1.1,7.8,3.2c2.2,2.2,3.2,4.8,3.2,7.8v6.6h26.5v-6.6c0-3,1.1-5.6,3.2-7.8c2.2-2.2,4.8-3.2,7.8-3.2h4.4c3,0,5.6,1.1,7.8,3.2
		c2.2,2.2,3.2,4.8,3.2,7.8v6.6h8.8c2.4,0,4.5,0.9,6.2,2.6C456.5,145.8,457.3,147.9,457.3,150.2z M351.5,187.7h19.9v-19.9h-19.9
		V187.7z M351.5,214.2h19.9v-22.1h-19.9V214.2z M351.5,238.5h19.9v-19.9h-19.9V238.5z M377.9,154.7v-19.9c0-0.6-0.2-1.1-0.7-1.5
		c-0.4-0.4-1-0.7-1.6-0.7h-4.4c-0.6,0-1.1,0.2-1.6,0.7c-0.4,0.4-0.7,1-0.7,1.5v19.9c0,0.6,0.2,1.1,0.7,1.5c0.4,0.4,1,0.7,1.6,0.7
		h4.4c0.6,0,1.1-0.2,1.6-0.7C377.7,155.8,377.9,155.3,377.9,154.7z M375.7,187.7h22.1v-19.9h-22.1V187.7z M375.7,214.2h22.1v-22.1
		h-22.1V214.2z M375.7,238.5h22.1v-19.9h-22.1V238.5z M402.2,187.7h22.1v-19.9h-22.1V187.7z M402.2,214.2h22.1v-22.1h-22.1V214.2z
		 M402.2,238.5h22.1v-19.9h-22.1V238.5z M430.9,154.7v-19.9c0-0.6-0.2-1.1-0.7-1.5c-0.4-0.4-1-0.7-1.6-0.7h-4.4
		c-0.6,0-1.1,0.2-1.5,0.7c-0.4,0.4-0.7,1-0.7,1.5v19.9c0,0.6,0.2,1.1,0.7,1.5c0.4,0.4,1,0.7,1.5,0.7h4.4c0.6,0,1.1-0.2,1.6-0.7
		C430.7,155.8,430.9,155.3,430.9,154.7z M428.7,187.7h19.9v-19.9h-19.9V187.7z M428.7,214.2h19.9v-22.1h-19.9V214.2z M428.7,238.5
		h19.9v-19.9h-19.9V238.5z"/>
</g>
<rect x="402.2" y="192.1" fill="#50DCB1" width="22.1" height="22.1"/>
<rect x="-35.5" y="-730" fill="#7845FF" width="871" height="672"/>
<g>
	<path fill="#50DCB1" d="M220-248.3c-4,0.8-7.8,0.9-11.2,0.3l-0.1,0.2l2.2,0.2l-19.6,0.9c-0.4,1.5-1,3.1-1.9,4.6
		c-0.8,1.5-1.4,3-1.7,4.6c3.6-0.4,6.3-0.6,8.1-0.5c1.9,0.1,3.3,0.1,4.2-0.1c0.9-0.2,1.9-0.4,2.7-0.6c2.1-0.5,3.8-0.2,5.5,0.8
		c0.7,0.5,1.2,1.5,1.4,2.9c0.2,1.4,0.6,2.4,1,3c2.3,1.5,3.8,3.3,4.6,5.4c0.7,2.2,0.7,4.2,0.1,6.1c-0.7,2-2,3.6-4,5
		c-2,1.4-4.7,2.2-8.1,2.3c-3.5,0.2-7.1,0.6-11,1.2c-3.9,0.7-7.8,1-11.4,1.2l-2.3,14.4c-1.8,3.1-4.8,4.6-8.8,4.4
		c-1.6-0.1-3.1-0.7-4.4-1.7c-1.3-1-2.2-2.6-2.5-4.7h-0.2c0-0.2,0-0.4,0.1-0.6c-0.3-1.3-0.5-2.6-0.6-3.9l-0.5-3.7
		c-0.7,0-1.3,0-1.9,0.1l-2.1,0.3l-13.5,2.1c-0.2,0-0.3,0-0.4,0c-0.1,0,0-0.1,0.1-0.1l-4.4,0.7c-0.7,2.6-1.7,5.4-2.8,8.3
		c-1.1,2.9-1.7,6.2-1.9,9.9c-1.9,3-4.8,4.6-8.4,4.9c-1.7,0.2-3.2-0.2-4.5-1s-2.2-2.3-2.6-4.3h-0.2c0-0.2,0-0.4,0.1-0.5v-0.3
		c0.2-2.9,0.3-7.3,0.4-13.3c-1.8,0.6-2.9,1-3.3,1.3c-0.7,0.5-2,0.8-3.6,1.1c-1.7,0.3-3.1,0-4.4-0.6c-1.2-0.7-2.2-1.6-2.7-2.8
		c-1.3-2.9-0.1-6.3,3.6-10c1.8-1.8,3.1-2.9,4.1-3.4c0.9-0.5,2-0.8,3-1.1c1-0.3,2.3-0.7,4-1.4c0.1-3.2,0.2-6.5,0.3-9.8
		c0.1-3.4,0.3-6.8,0.5-10.2c-7.9,2-13.9,2.2-18.4,0.4c-2.1-1.4-2.9-2.9-2.5-4.3c0.3-1.4,1.3-3.1,3-5c5.1-3.7,11.7-7.2,19.4-10.3
		l0.7-6.2c0.9-10.4,2-17.5,3.1-21.3c1-3.8,2.8-7.1,5.3-9.6c2.4-2.5,5.1-4.4,8-5.7c2.9-1.2,5.8-1.8,8.8-1.6c3,0.2,5.6,0.9,7.8,2.3
		c5.1,3.1,7.1,8.6,5.7,16.3l-4.3,12.3l10.4-4.3c0.2-1,0.4-2,0.7-2.8c0.3-0.8,0.5-1.8,0.7-2.6c0.6-2.6,0.7-5,0.7-7.3
		c0.4-4.2,1.8-7.7,4.1-10.6c2.3-2.9,5-5.1,8.1-6.9c3.1-1.8,6.3-2.9,9.5-3.6c3.3-0.7,5.9-0.8,7.8-0.7c1.9,0.2,3.5,0.7,4.7,1.3
		c1.2,0.7,2.2,1.5,2.9,2.6c1.7,2.3,1.6,5.1-0.2,8.4c0,3.3-0.9,7.7-2.7,13.3h3.6c2.2,0.4,4,0.7,5.5,0.8c1.5,0.2,2.9,0.8,4.4,1.9
		c1.4,1,2.6,1.7,3.4,2.1c0.8,0.4,1.5,0.7,2,1.3c0.9,1,0.8,3.1-0.2,6.1c3.6,4.5,5,8.9,4.3,13.2C226.4-252.7,224-249.8,220-248.3z
		 M145.1-225.3c5.9-2.3,11.8-4.4,17.6-6.1c0.3-2.1,0.7-4.5,1.1-7.1c0.5-2.6,0.9-5,1.2-7.1l-15.6,2.7L145.1-225.3z M211.2-247.6
		c0.7-0.1,1.3-0.1,1.9,0c0.6,0.1,0.9,0.1,1.2,0.2c0.3,0,0.3,0,0.1,0.1C213.4-247.3,212.4-247.4,211.2-247.6z"/>
	<path fill="#E1E1E1" d="M230.8-288.6c-0.7-1.9-0.7-3.6,0.1-5.5c0.7-1.9,2.2-3.8,4.6-5.9c2.2-2.1,4.4-3.4,6.4-3.9l0.1-0.2
		c0.5-0.3,0.9-0.6,1.3-0.9c0.4-0.4,0.8-0.7,1.3-1c3.6-3.9,6.9-8.3,9.7-12.9c0.1-0.1,0.1-0.2,0.1-0.3c0-0.1,0.1-0.3,0.3-0.5
		c1-3.3,3.2-5.9,6.5-7.8c3.3-1.9,6.5-3,9.8-3.2c3.2-0.2,6.2,0.4,9,1.9c2.8,1.4,4.7,3.8,5.6,7.2c-0.1,2.8-1,6.2-2.8,10.4
		c0.7,1.2,1.7,2.6,2.8,4.2c1.1,1.6,1.6,3.3,1.2,5.1c-2,5.4-3.8,10.8-5.8,16.4c-2,5.4-3.6,10.2-4.8,14.3c-1.2,4.1-2.2,7.8-3.2,11
		c-0.9,3.3-1.9,6.6-2.9,10c-3.3,12.2-5.5,22.1-6.8,29.6c-1.2,7.6-2.7,13.7-4.4,18.6l0.1,0.5h-0.2c-0.7,2.3-2.1,4.1-4.5,5.4
		c-2.3,1.3-4.9,2-7.5,2.1c-2.6,0.1-5-0.6-7.1-1.8c-2.2-1.2-3.2-3.2-3.3-5.9c-0.1-2.7,0-5.3,0.3-7.9c0.3-2.5,0.6-7.2,0.9-13.9
		c0.7-13.6,3.1-32.8,6.8-57.8c-2.9-0.1-5.7-0.8-8.4-2.2C233.3-285,231.5-286.7,230.8-288.6z"/>
	<path fill="#E1E1E1" d="M289-295.3c-0.7-1.9-0.7-3.6,0.1-5.5s2.2-3.8,4.6-5.9c2.2-2.1,4.4-3.4,6.4-3.9l0.1-0.2
		c0.5-0.3,0.9-0.6,1.3-0.9c0.4-0.4,0.8-0.7,1.3-1c3.6-3.9,6.9-8.3,9.7-12.9c0.1-0.1,0.1-0.2,0.1-0.3c0-0.1,0.1-0.3,0.3-0.5
		c1-3.3,3.2-5.9,6.5-7.8c3.3-1.9,6.5-3,9.8-3.2c3.2-0.2,6.2,0.4,9,1.9c2.8,1.4,4.7,3.8,5.6,7.2c-0.1,2.8-1,6.2-2.8,10.4
		c0.7,1.2,1.7,2.6,2.8,4.2c1.1,1.6,1.6,3.3,1.2,5.1c-2,5.4-3.8,10.8-5.8,16.4c-2,5.4-3.6,10.2-4.8,14.3c-1.2,4.1-2.2,7.8-3.2,11
		c-0.9,3.3-1.9,6.6-2.9,10c-3.3,12.2-5.5,22.1-6.8,29.6c-1.2,7.6-2.7,13.7-4.4,18.6l0.1,0.5H317c-0.7,2.3-2.1,4.1-4.5,5.4
		c-2.3,1.3-4.9,2-7.5,2.1c-2.6,0.1-5-0.6-7.1-1.8c-2.2-1.2-3.2-3.2-3.3-5.9c-0.1-2.7,0-5.3,0.3-7.9c0.3-2.5,0.6-7.2,0.9-13.9
		c0.7-13.6,3.1-32.8,6.8-57.8c-2.9-0.1-5.7-0.8-8.4-2.2C291.4-291.8,289.8-293.5,289-295.3z"/>
	<path fill="#E1E1E1" d="M400.5-224c-2.2,4.1-6,7.1-11.5,9c-5.5,1.8-10,1.8-13.6-0.2c-4.2-2.1-5.4-6.3-3.8-12.7
		c1.3-3.1,2.5-6,3.6-8.6c1-2.6,2.1-5.2,3.4-7.9c2.8-6,6-11.9,9.3-17.8c-10.1,3.8-18.8,3.6-26.2-0.5c-7.6-4.2-12.1-10.9-13.6-20.2
		c-0.7-4.7-0.4-9.7,1-15.4c1.4-5.6,3.6-11.1,6.5-16.6c2.9-5.4,6.5-10.3,10.6-14.5c9.1-9.3,19.2-13.9,30.2-14.1
		c9-0.4,15.1-0.2,18.5,0.5c7.9,1.4,11.2,5,10.3,10.8c-0.4,1.9-0.2,3.2,0.6,3.9c0.7,0.7,1.6,1.4,2.6,2c1,0.7,2,1.6,2.7,2.8
		c0.8,1.2,1.2,3.4,1.2,6.5c-0.5,24.9-6.6,48.9-18.6,72.1C409.6-237.5,405.3-230.5,400.5-224z M401.2-315.3c-0.2-1.7-1.7-2.4-4.6-2.4
		c-3.5,0.5-6.6,2.5-9.4,6.1c-2.9,3.8-4.6,7.9-5,11.8c-0.5,4.5,0.7,6.9,3.5,7.3c3,0.6,5.9-0.6,8.6-3.4c3.2-3.2,5.1-7.8,5.9-13.7
		c0.2-1.2,0.4-2.2,0.7-3.3C401.1-313.8,401.2-314.6,401.2-315.3z"/>
	<path fill="#E1E1E1" d="M522-302.6c0.1,4.2-0.2,8.6-0.7,13.1c-0.6,4.5-1.7,9-3.3,13.4c-1.6,4.4-3.6,8.7-6,12.9
		c-2.4,4.2-5.1,8.1-8.3,11.9c-3.1,3.7-6.5,6.9-10.2,9.6c-7.9,6.1-16,8.8-24.1,8.3c-1.3,4-3.6,6.7-6.9,8.1c-3.4,1.4-6.7,1.8-10.2,1.2
		c-3.5-0.7-6.6-2.2-9.4-4.7c-2.9-2.5-4.6-6.3-5.1-11.1c-0.6-4.9-0.8-10-0.7-15.1c0.1-5.2,0.5-10.3,1-15.1c0.9-8,2.3-15.7,4.2-22.9
		c4.6-16.4,6.9-27.8,7.1-34.1c0.3-8.6,2-14.1,5.1-16.6c5.2-3.9,10.4-6,15.5-6.1c5.1-0.1,9.8,0.6,14.1,2.1c7.1,2.4,15,6.9,23.6,13.7
		C517.1-327.1,521.8-316.5,522-302.6z M469.9-252.2c4.7-3.1,8.3-6.2,11.1-9.2c2.7-3,5.3-5.8,7.8-8.3c3.6-4.7,6.2-10,7.5-15.9
		c2.8-13.1-1-22.3-11.5-27.7c-1.6-0.9-3.9-2.1-7-3.6c-1,3.3-1.6,6.6-1.9,10.1c-0.3,3.5-0.7,6.8-1.4,10.2l-2.4,13.3l-1.6,14.2
		c0,2,0,3.8-0.2,5.7c-0.2,1.9-0.3,3.7-0.4,5.7V-252.2z"/>
	<path fill="#E1E1E1" d="M593.8-351.1c3.5,1.4,5.9,3.6,7.2,7c-0.7,11.1-1.1,22.1-1.5,33c-0.3,10.9-0.7,20-1.4,27.5
		c-0.7,7.4-0.9,12.9-1.1,16.6c-0.1,3.6-0.3,7.3-0.6,10.9l-0.6,3.2c-0.1,1.1-0.2,2.2-0.2,3.1c-0.1,0.9-0.2,2-0.2,3.1
		c-2.3,3.5-5.9,5.4-10.5,6c-5,0.6-9.1-0.2-12.3-2.4c-1.9-1.1-2.5-4-1.9-8.5c0.3-1.8,0.4-4.1,0.2-6.9c-0.2-2.8-0.3-5.1-0.3-7v-0.3
		c-2.8,1.4-5.2,3.1-7.4,5.1c-2.2,2-3.5,3.2-4,3.7c-0.6,0.5-1.3,0.9-2.2,1.3c-0.9,0.4-1.8,0.7-2.5,0.8c-1.9,0.3-3.1,0.7-3.6,1.3
		c-4.5,10.8-8.8,16.9-13.2,18.7c-2.7,1.2-5.5,1.8-8.3,1.7c-2.9-0.1-5.3-1.5-7.3-4.2c-3.5-2.5-3.6-10.6-0.5-24.1
		c1.7-7.2,4.4-15.9,7.9-26.1c3.6-10.2,7.1-19.2,10.7-26.8c7.6-16.6,16.5-30.8,26.5-42.6c1.8-1,3.6-2.2,5.6-3.4
		c2.1-1.3,4-2.1,6.2-2.4c2.1-0.4,4.3-0.4,6.5,0c2.3,0.3,4.3,0.9,6,2C594.9-359,595.8-355.6,593.8-351.1z M567.1-309.1
		c-1.4,6.1-2.8,11.7-4.2,16.8c-1.5,5.1-2.7,9.6-3.7,13.5l11.4-1.8c0.1-6.3,0.2-12.5,0.5-18.8c0.3-6.3,0.5-12.4,0.7-18.7L567.1-309.1
		z M566.6-279.6c1.4-0.2,2.7-0.4,4-0.7v-0.2c-1.2,0.3-2.4,0.5-3.5,0.7C566.1-279.6,565.9-279.5,566.6-279.6z"/>
	<path fill="#E1E1E1" d="M618-309.8c-3.3-13.8-5.3-25.2-6.1-34.1c-0.7-4.1,0.6-8.3,3.7-12.5c3-4,6.3-6.4,9.9-7.2
		c4-0.7,6.9,1.2,8.7,5.9c1.1,2.6,2.4,5.7,4,9.2c1.6,3.5,3.2,7.1,4.7,10.9c0.9-1.6,2.3-4.4,4.2-8.3c1.9-3.9,3.7-7.5,5.4-10.7
		c4.1-7.7,7.9-13.1,11.4-16.4c3.6-1.9,6.6-2.7,9.4-2.3c2.7,0.3,4.8,1.1,6.2,2.3c1.4,1.2,2.1,3.2,2.1,5.8c0.6,6.2-3,16.3-10.6,30.5
		c-1.8,3.3-3.6,7-5.2,11.2c-1.7,4.2-3.7,9-6,14.2c-2.2,5.2-4.5,10.5-6.5,15.6c-4.8,11.7-8.2,22.6-10.5,32.9c0.1-0.2,0.5,0,1.2,0.6
		c0.7,0.6,1.5,1.4,2.2,2.4c1.9,2.7,2.1,5.1,0.4,7.3c-4.1,5.4-9.5,8.8-16.4,10.2c-6.3,1.2-11.8,0.7-16.7-1.6
		c-4.9-2.1-6.7-5.1-5.6-9.3l-0.5,0.1c1.5-5.8,3.3-11.3,5.4-16.5c2.2-5.2,4.4-10.7,6.6-16.2l5.1-12.4c-1.6,0.6-3.1-0.5-4.5-3
		C619.1-303.3,618.3-306.2,618-309.8z"/>
	<path fill="#E1E1E1" d="M703.5-255.4c-5,0.7-9.5,0.7-13.8-0.2c-4.3-0.9-7.9-2.4-10.8-4.6c-2.9-2.2-4.8-4.8-5.9-7.9
		c-1-3.2-0.8-6.5,0.6-10.2c2.1-4.4,6.9-6.2,14.7-5.4c5.9,0.5,9.9,0.7,12.1,0.5c2.2-0.2,4-0.7,5.5-1.5c6.8-3.2,10.5-6.2,11-9
		c0.4-2.1-1.2-4.3-4.6-6.7c-1.4-1-2.9-2.1-4.6-3c-1.7-1-3.2-2-4.3-3c-5.2-3-9.5-6.7-12.9-11.1c-3.3-4.4-5-9.4-5.2-15
		c-0.2-5.6,0.2-10.3,1.1-14.1c0.9-3.8,2.2-7.2,3.9-10.3c3-5.3,7.2-9.9,12.5-13.7c6.2-4.2,11.2-7,15.1-8.4c7.7-2.7,15.6-3.7,23.8-3.3
		c2.8,0.2,5.2,0.8,7.3,2c2.1,1.1,4.2,2.3,6.4,3.6c3.8,3,5.1,6.4,3.6,10c-0.5,1.6-1.4,3-2.8,4.1c-1.3,1.1-2.8,1.9-4.5,2.2
		c0.5,2.6,0.3,4.6-0.7,6c-2,2.5-5.7,4.4-11.1,5.7c-8,0.4-13.4,1.4-16,3.2c-3.1,2.2-3.8,6.1-2.3,11.8c0.4,1.2,1.3,2.4,2.9,3.6
		c1.6,1.2,3.4,2.4,5.4,3.8c2.1,1.3,4.3,2.8,6.5,4.6c2.3,1.7,4.4,3.7,6.3,6.1c6.5,8.3,7.3,18.8,2.3,31.4
		c-3.6,9.4-10.8,17.1-21.5,22.9C718.2-258.3,711.5-256.3,703.5-255.4z"/>
</g>
<g>
	<g>
		<path fill="#E1E1E1" d="M546.7-529.8l-26.6,142.1c-0.7,3.9-2.8,7-6.1,9.2c-3.3,2.2-6.9,3-10.8,2.3L347-405.5
			c-3.9-0.7-7-2.8-9.2-6.1c-2.2-3.3-3-6.9-2.3-10.8l26.6-142.1c0.7-3.9,2.8-7,6.1-9.2c3.3-2.2,6.9-3,10.8-2.3l14.2,2.7l2-10.6
			c0.9-4.8,3.5-8.7,7.5-11.6c4.2-2.9,8.7-3.7,13.5-2.8l7.1,1.3c4.8,0.9,8.7,3.5,11.6,7.5c2.9,4.2,3.7,8.7,2.8,13.5l-2,10.6l42.7,8
			l2-10.6c0.9-4.8,3.5-8.7,7.5-11.6c4.2-2.9,8.7-3.7,13.5-2.8l7.1,1.3c4.8,0.9,8.7,3.5,11.6,7.5c2.9,4.2,3.7,8.7,2.8,13.5l-2,10.6
			l14.2,2.7c3.9,0.7,7,2.8,9.2,6.1C546.7-537.1,547.4-533.5,546.7-529.8z M364.9-501.3l32.1,6l6-32.1l-32.1-6L364.9-501.3z
			 M356.9-458.6l32.1,6l6.7-35.6l-32.1-6L356.9-458.6z M349.6-419.5l32.1,6l6-32.1l-32.1-6L349.6-419.5z M417.4-546.5l6-32.1
			c0.2-1,0-1.8-0.7-2.6c-0.5-0.8-1.4-1.4-2.4-1.6l-7.1-1.3c-1-0.2-1.8,0-2.8,0.6c-0.8,0.5-1.4,1.4-1.6,2.2l-6,32.1
			c-0.2,1,0,1.8,0.7,2.6c0.5,0.8,1.4,1.4,2.4,1.6l7.1,1.3c1,0.2,1.8,0,2.8-0.6C416.8-544.8,417.2-545.5,417.4-546.5z M403.9-494
			l35.6,6.7l6-32.1l-35.6-6.7L403.9-494z M395.9-451.3l35.6,6.7l6.7-35.6l-35.6-6.7L395.9-451.3z M388.6-412.2l35.6,6.7l6-32.1
			l-35.6-6.7L388.6-412.2z M446.6-486l35.6,6.7l6-32.1l-35.6-6.7L446.6-486z M438.6-443.3l35.6,6.7l6.7-35.6l-35.6-6.7L438.6-443.3z
			 M431.3-404.2l35.6,6.7l6-32.1l-35.6-6.7L431.3-404.2z M502.8-530.5l6-32.1c0.2-1,0-1.8-0.7-2.6c-0.5-0.8-1.4-1.4-2.4-1.6
			l-7.1-1.3c-1-0.2-1.8,0-2.6,0.7c-0.8,0.5-1.4,1.4-1.6,2.2l-6,32.1c-0.2,1,0,1.8,0.7,2.6c0.5,0.8,1.4,1.4,2.2,1.6l7.1,1.3
			c1,0.2,1.8,0,2.8-0.6C502.1-528.8,502.6-529.5,502.8-530.5z M489.3-478l32.1,6l6-32.1l-32.1-6L489.3-478z M481.3-435.3l32.1,6
			l6.7-35.6l-32.1-6L481.3-435.3z M474-396.2l32.1,6l6-32.1l-32.1-6L474-396.2z"/>
	</g>
	
		<rect x="441.6" y="-475.9" transform="matrix(0.9829 0.1841 -0.1841 0.9829 -76.4039 -92.4386)" fill="#50DCB1" width="36.2" height="36.2"/>
</g>
<rect x="-39" y="660" fill="#7845FF" width="871" height="672"/>
<g>
	<path fill="#50DCB1" d="M294.6,1084.8c-2.3,0.5-4.5,0.5-6.5,0.2l-0.1,0.1l1.3,0.1l-11.3,0.5c-0.2,0.9-0.6,1.8-1.1,2.6
		c-0.5,0.9-0.8,1.7-1,2.6c2-0.2,3.6-0.3,4.7-0.3c1.1,0.1,1.9,0.1,2.4-0.1c0.5-0.1,1.1-0.2,1.6-0.3c1.2-0.3,2.2-0.1,3.2,0.5
		c0.4,0.3,0.7,0.9,0.8,1.7c0.1,0.8,0.3,1.4,0.6,1.7c1.3,0.9,2.2,1.9,2.6,3.1s0.4,2.4,0.1,3.5c-0.4,1.1-1.1,2.1-2.3,2.9
		c-1.1,0.8-2.7,1.2-4.7,1.3s-4.1,0.3-6.3,0.7c-2.3,0.4-4.5,0.6-6.6,0.7l-1.3,8.3c-1,1.8-2.7,2.6-5.1,2.5c-0.9-0.1-1.8-0.4-2.5-1
		s-1.3-1.5-1.5-2.7h-0.1c0-0.1,0-0.2,0.1-0.3c-0.2-0.8-0.3-1.5-0.3-2.3l-0.3-2.2c-0.4,0-0.8,0-1.1,0.1l-1.2,0.2l-7.7,1.2
		c-0.1,0-0.2,0-0.2,0c-0.1,0,0-0.1,0.1-0.1l-2.5,0.4c-0.4,1.5-1,3.1-1.6,4.8c-0.6,1.7-1,3.5-1.1,5.7c-1.1,1.7-2.7,2.6-4.8,2.8
		c-1,0.1-1.8-0.1-2.6-0.6c-0.8-0.5-1.3-1.3-1.5-2.5h-0.1c0-0.1,0-0.2,0.1-0.3v-0.2c0.1-1.7,0.2-4.2,0.2-7.6c-1,0.3-1.7,0.6-1.9,0.8
		c-0.4,0.3-1.1,0.5-2,0.6c-1,0.2-1.8,0-2.5-0.3c-0.7-0.4-1.2-0.9-1.6-1.6c-0.8-1.7-0.1-3.6,2-5.8c1-1,1.8-1.7,2.4-1.9
		c0.5-0.3,1.1-0.5,1.7-0.6c0.6-0.2,1.3-0.4,2.3-0.8c0.1-1.8,0.1-3.7,0.2-5.6c0.1-1.9,0.2-3.9,0.3-5.9c-4.5,1.1-8,1.2-10.6,0.2
		c-1.2-0.8-1.7-1.7-1.5-2.5c0.2-0.8,0.8-1.8,1.7-2.8c3-2.2,6.7-4.1,11.2-5.9l0.4-3.5c0.5-6,1.1-10.1,1.8-12.3
		c0.6-2.2,1.6-4.1,3.1-5.5c1.4-1.5,3-2.5,4.6-3.3c1.7-0.7,3.3-1,5.1-0.9c1.7,0.1,3.2,0.5,4.5,1.3c3,1.8,4.1,4.9,3.3,9.4l-2.5,7.1
		l6-2.5c0.1-0.6,0.2-1.1,0.4-1.6c0.2-0.5,0.3-1,0.4-1.5c0.3-1.5,0.4-2.9,0.4-4.2c0.2-2.4,1-4.4,2.4-6.1c1.3-1.7,2.9-3,4.7-4
		c1.8-1,3.6-1.7,5.5-2s3.4-0.5,4.5-0.4c1.1,0.1,2,0.4,2.7,0.8c0.7,0.4,1.2,0.9,1.7,1.5c1,1.3,0.9,3-0.1,4.8c0,1.9-0.5,4.4-1.6,7.6
		h2.1c1.3,0.2,2.3,0.4,3.2,0.5c0.9,0.1,1.7,0.5,2.5,1.1c0.8,0.6,1.5,1,1.9,1.2c0.5,0.2,0.9,0.4,1.1,0.8c0.5,0.6,0.5,1.8-0.1,3.5
		c2,2.6,2.8,5.1,2.5,7.6C298.3,1082.3,296.9,1083.9,294.6,1084.8z M251.5,1098c3.4-1.3,6.8-2.5,10.1-3.5c0.2-1.2,0.4-2.6,0.6-4.1
		c0.3-1.5,0.5-2.8,0.7-4.1l-9,1.6L251.5,1098z M289.5,1085.2c0.4-0.1,0.8-0.1,1.1,0c0.3,0.1,0.5,0.1,0.7,0.1c0.2,0,0.2,0,0.1,0.1
		C290.8,1085.3,290.2,1085.3,289.5,1085.2z"/>
	<path fill="#E1E1E1" d="M300.8,1061.6c-0.4-1.1-0.4-2.1,0.1-3.2c0.4-1.1,1.3-2.2,2.6-3.4c1.3-1.2,2.5-1.9,3.7-2.3l0.1-0.1
		c0.3-0.2,0.5-0.3,0.8-0.5c0.2-0.2,0.5-0.4,0.8-0.6c2.1-2.3,4-4.8,5.6-7.4c0.1-0.1,0.1-0.1,0.1-0.2c0-0.1,0.1-0.2,0.2-0.3
		c0.6-1.9,1.8-3.4,3.7-4.5c1.9-1.1,3.8-1.7,5.6-1.8c1.8-0.1,3.5,0.2,5.2,1.1c1.6,0.8,2.7,2.2,3.2,4.1c-0.1,1.6-0.6,3.5-1.6,6
		c0.4,0.7,1,1.5,1.6,2.4s0.9,1.9,0.7,3c-1.1,3.1-2.2,6.2-3.3,9.4c-1.1,3.1-2,5.9-2.7,8.2c-0.7,2.4-1.3,4.5-1.8,6.3
		c-0.5,1.9-1.1,3.8-1.7,5.8c-1.9,7-3.2,12.7-3.9,17c-0.7,4.4-1.6,7.9-2.5,10.7l0.1,0.3h-0.1c-0.4,1.3-1.2,2.4-2.6,3.1
		c-1.3,0.8-2.8,1.1-4.3,1.2s-2.9-0.3-4.1-1c-1.2-0.7-1.8-1.8-1.9-3.4c-0.1-1.6,0-3.1,0.2-4.5s0.3-4.1,0.5-8
		c0.4-7.8,1.8-18.9,3.9-33.2c-1.7-0.1-3.3-0.5-4.8-1.3C302.2,1063.7,301.2,1062.7,300.8,1061.6z"/>
	<path fill="#E1E1E1" d="M334.3,1057.8c-0.4-1.1-0.4-2.1,0.1-3.2s1.3-2.2,2.6-3.4c1.3-1.2,2.5-1.9,3.7-2.3l0.1-0.1
		c0.3-0.2,0.5-0.3,0.8-0.5c0.2-0.2,0.5-0.4,0.8-0.6c2.1-2.3,4-4.8,5.6-7.4c0.1-0.1,0.1-0.1,0.1-0.2s0.1-0.2,0.2-0.3
		c0.6-1.9,1.8-3.4,3.7-4.5s3.8-1.7,5.6-1.8c1.8-0.1,3.5,0.2,5.2,1.1c1.6,0.8,2.7,2.2,3.2,4.1c-0.1,1.6-0.6,3.5-1.6,6
		c0.4,0.7,1,1.5,1.6,2.4c0.6,0.9,0.9,1.9,0.7,3c-1.1,3.1-2.2,6.2-3.3,9.4c-1.1,3.1-2,5.9-2.7,8.2c-0.7,2.4-1.3,4.5-1.8,6.3
		s-1.1,3.8-1.7,5.8c-1.9,7-3.2,12.7-3.9,17c-0.7,4.4-1.6,7.9-2.5,10.7l0.1,0.3h-0.1c-0.4,1.3-1.2,2.4-2.6,3.1
		c-1.3,0.8-2.8,1.1-4.3,1.2c-1.5,0.1-2.9-0.3-4.1-1c-1.2-0.7-1.8-1.8-1.9-3.4c-0.1-1.6,0-3.1,0.2-4.5c0.2-1.5,0.3-4.1,0.5-8
		c0.4-7.8,1.8-18.9,3.9-33.2c-1.7-0.1-3.3-0.5-4.8-1.3C335.7,1059.7,334.7,1058.8,334.3,1057.8z"/>
	<path fill="#E1E1E1" d="M398.3,1098.7c-1.2,2.4-3.4,4.1-6.6,5.2c-3.2,1-5.8,1-7.8-0.1c-2.4-1.2-3.1-3.6-2.2-7.3
		c0.8-1.8,1.5-3.4,2-4.9c0.6-1.5,1.2-3,1.9-4.5c1.6-3.4,3.4-6.8,5.3-10.2c-5.8,2.2-10.8,2.1-15.1-0.3c-4.4-2.4-6.9-6.3-7.8-11.6
		c-0.4-2.7-0.2-5.6,0.6-8.9c0.8-3.2,2-6.4,3.7-9.6c1.7-3.1,3.7-5.9,6.1-8.3c5.2-5.3,11-8,17.4-8.1c5.2-0.2,8.7-0.1,10.6,0.3
		c4.5,0.8,6.5,2.9,5.9,6.2c-0.2,1.1-0.1,1.8,0.3,2.3c0.4,0.4,0.9,0.8,1.5,1.1c0.6,0.4,1.1,0.9,1.6,1.6c0.5,0.7,0.7,1.9,0.7,3.7
		c-0.3,14.3-3.8,28.1-10.7,41.4C403.6,1091,401.1,1095,398.3,1098.7z M398.8,1046.3c-0.1-1-1-1.4-2.6-1.4c-2,0.3-3.8,1.5-5.4,3.5
		c-1.7,2.2-2.6,4.5-2.8,6.8c-0.3,2.6,0.4,4,2,4.2c1.7,0.3,3.4-0.3,4.9-1.9c1.8-1.8,3-4.5,3.4-7.8c0.1-0.7,0.2-1.3,0.4-1.9
		C398.7,1047.1,398.8,1046.6,398.8,1046.3z"/>
	<path fill="#E1E1E1" d="M468.2,1053.6c0.1,2.4-0.1,4.9-0.4,7.5c-0.3,2.6-1,5.2-1.9,7.7s-2.1,5-3.4,7.4c-1.4,2.4-3,4.7-4.8,6.8
		c-1.8,2.2-3.8,4-5.9,5.5c-4.6,3.5-9.2,5.1-13.9,4.8c-0.8,2.3-2.1,3.9-4,4.7c-1.9,0.8-3.9,1-5.9,0.7c-2-0.4-3.8-1.3-5.4-2.7
		c-1.7-1.5-2.6-3.6-3-6.4c-0.3-2.8-0.5-5.8-0.4-8.7c0.1-3,0.3-5.9,0.6-8.7c0.5-4.6,1.3-9,2.4-13.2c2.6-9.4,4-16,4.1-19.6
		c0.2-4.9,1.1-8.1,3-9.5c3-2.3,6-3.4,8.9-3.5c3-0.1,5.6,0.3,8.1,1.2c4.1,1.4,8.6,4,13.5,7.8C465.4,1039.5,468.1,1045.6,468.2,1053.6
		z M438.3,1082.5c2.7-1.8,4.8-3.5,6.4-5.3c1.6-1.7,3.1-3.3,4.5-4.8c2.1-2.7,3.5-5.8,4.3-9.1c1.6-7.5-0.6-12.8-6.6-15.9
		c-0.9-0.5-2.3-1.2-4-2c-0.6,1.9-0.9,3.8-1.1,5.8c-0.2,2-0.4,3.9-0.8,5.9l-1.4,7.6l-0.9,8.2c0,1.1,0,2.2-0.1,3.3s-0.2,2.2-0.2,3.3
		V1082.5z"/>
	<path fill="#E1E1E1" d="M509.5,1025.7c2,0.8,3.4,2.1,4.1,4c-0.4,6.4-0.6,12.7-0.9,19c-0.2,6.3-0.4,11.5-0.8,15.8
		c-0.4,4.2-0.5,7.4-0.6,9.5c-0.1,2.1-0.2,4.2-0.3,6.3l-0.3,1.8c-0.1,0.6-0.1,1.2-0.1,1.8c-0.1,0.5-0.1,1.1-0.1,1.8
		c-1.3,2-3.4,3.1-6,3.4c-2.8,0.3-5.2-0.1-7-1.4c-1.1-0.6-1.5-2.3-1.1-4.9c0.2-1,0.2-2.4,0.1-4c-0.1-1.6-0.2-3-0.2-4v-0.2
		c-1.6,0.8-3,1.8-4.2,2.9s-2,1.8-2.3,2.2c-0.3,0.3-0.8,0.5-1.3,0.8s-1,0.4-1.5,0.5c-1.1,0.2-1.8,0.4-2.1,0.8
		c-2.6,6.2-5.1,9.7-7.6,10.8c-1.6,0.7-3.2,1-4.8,1c-1.7-0.1-3.1-0.9-4.2-2.4c-2-1.5-2-6.1-0.3-13.9c1-4.1,2.5-9.1,4.6-15
		c2-5.9,4.1-11,6.1-15.4c4.4-9.5,9.5-17.7,15.2-24.5c1-0.6,2.1-1.2,3.2-1.9c1.2-0.8,2.3-1.2,3.5-1.4c1.2-0.2,2.5-0.2,3.8,0
		c1.3,0.2,2.5,0.5,3.4,1.1C510.1,1021.1,510.6,1023.1,509.5,1025.7z M494.1,1049.8c-0.8,3.5-1.6,6.7-2.4,9.7c-0.9,3-1.6,5.5-2.2,7.7
		l6.6-1c0.1-3.6,0.1-7.2,0.3-10.8c0.2-3.6,0.3-7.1,0.4-10.8L494.1,1049.8z M493.9,1066.8c0.8-0.1,1.6-0.2,2.3-0.4v-0.1
		c-0.7,0.2-1.4,0.3-2,0.4C493.5,1066.8,493.4,1066.8,493.9,1066.8z"/>
	<path fill="#E1E1E1" d="M523.4,1049.4c-1.9-8-3.1-14.5-3.5-19.6c-0.4-2.4,0.3-4.8,2.2-7.2c1.7-2.3,3.6-3.7,5.7-4.1
		c2.3-0.4,4,0.7,5,3.4c0.6,1.5,1.4,3.3,2.3,5.3c0.9,2,1.8,4.1,2.7,6.3c0.5-0.9,1.3-2.5,2.4-4.8c1.1-2.3,2.2-4.3,3.1-6.1
		c2.4-4.4,4.6-7.5,6.6-9.4c2-1.1,3.8-1.6,5.4-1.3c1.6,0.2,2.7,0.6,3.5,1.3c0.8,0.7,1.2,1.8,1.2,3.3c0.3,3.5-1.7,9.4-6.1,17.5
		c-1,1.9-2,4-3,6.5c-1,2.4-2.2,5.2-3.4,8.2c-1.3,3-2.6,6-3.8,9c-2.7,6.7-4.7,13-6,18.9c0.1-0.1,0.3,0,0.7,0.3
		c0.4,0.3,0.9,0.8,1.3,1.4c1.1,1.6,1.2,3,0.2,4.2c-2.4,3.1-5.5,5.1-9.4,5.9c-3.6,0.7-6.8,0.4-9.6-0.9c-2.8-1.2-3.9-3-3.2-5.3
		l-0.3,0.1c0.9-3.3,1.9-6.5,3.1-9.5c1.2-3,2.5-6.1,3.8-9.3l3-7.2c-0.9,0.3-1.8-0.3-2.6-1.7C524,1053.1,523.6,1051.5,523.4,1049.4z"
		/>
	<path fill="#E1E1E1" d="M572.6,1080.7c-2.8,0.4-5.5,0.4-8-0.1c-2.5-0.5-4.5-1.4-6.2-2.6c-1.7-1.2-2.7-2.7-3.4-4.6
		c-0.6-1.8-0.5-3.8,0.3-5.9c1.2-2.5,4-3.5,8.4-3.1c3.4,0.3,5.7,0.4,6.9,0.3s2.3-0.4,3.2-0.9c3.9-1.8,6-3.5,6.3-5.2
		c0.2-1.2-0.7-2.5-2.6-3.9c-0.8-0.6-1.7-1.2-2.6-1.7c-1-0.6-1.8-1.1-2.5-1.7c-3-1.7-5.5-3.9-7.4-6.4c-1.9-2.5-2.9-5.4-3-8.6
		s0.1-5.9,0.6-8.1c0.5-2.2,1.3-4.1,2.3-5.9c1.7-3.1,4.1-5.7,7.2-7.9c3.5-2.4,6.5-4,8.7-4.8c4.4-1.6,9-2.2,13.7-1.9
		c1.6,0.1,3,0.5,4.2,1.1c1.2,0.6,2.4,1.3,3.7,2c2.2,1.7,2.9,3.7,2.1,5.8c-0.3,0.9-0.8,1.7-1.6,2.4c-0.8,0.6-1.6,1.1-2.6,1.2
		c0.3,1.5,0.2,2.6-0.4,3.4c-1.1,1.5-3.3,2.5-6.4,3.3c-4.6,0.2-7.7,0.8-9.2,1.8c-1.8,1.2-2.2,3.5-1.3,6.8c0.2,0.7,0.8,1.4,1.7,2.1
		c0.9,0.7,1.9,1.4,3.1,2.2c1.2,0.8,2.5,1.6,3.8,2.6c1.3,1,2.5,2.2,3.6,3.5c3.7,4.8,4.2,10.8,1.3,18.1c-2.1,5.4-6.2,9.8-12.4,13.2
		C581,1079,577.1,1080.2,572.6,1080.7z"/>
</g>
<g>
	<path fill="#E1E1E1" d="M661.2,844.6V1223c0,10.2-3.7,19.1-11.2,26.6c-7.5,7.5-16.4,11.2-26.6,11.2H207.1
		c-10.2,0-19.1-3.8-26.6-11.2c-7.5-7.5-11.2-16.4-11.2-26.6V844.6c0-10.2,3.7-19.1,11.2-26.6c7.5-7.5,16.4-11.2,26.6-11.2H245v-28.4
		c0-13,4.6-24.1,13.9-33.4c9.3-9.3,20.4-13.9,33.4-13.9h18.9c13,0,24.1,4.6,33.4,13.9c9.3,9.3,13.9,20.4,13.9,33.4v28.4H472v-28.4
		c0-13,4.6-24.1,13.9-33.4c9.3-9.3,20.4-13.9,33.4-13.9h18.9c13,0,24.1,4.6,33.4,13.9c9.3,9.3,13.9,20.4,13.9,33.4v28.4h37.8
		c10.2,0,19.1,3.7,26.6,11.2C657.5,825.5,661.2,834.4,661.2,844.6z M207.1,1223h416.2V920.3H207.1V1223z M320.6,863.6v-85.1
		c0-2.8-0.9-5-2.7-6.8c-1.8-1.8-4-2.7-6.8-2.7h-18.9c-2.8,0-5,0.9-6.8,2.7c-1.8,1.8-2.7,4-2.7,6.8v85.1c0,2.8,0.9,5,2.7,6.8
		c1.8,1.8,4,2.7,6.8,2.7h18.9c2.8,0,5-0.9,6.8-2.7C319.8,868.6,320.6,866.3,320.6,863.6z M547.7,863.6v-85.1c0-2.8-0.9-5-2.7-6.8
		c-1.8-1.8-4-2.7-6.8-2.7h-18.9c-2.8,0-5,0.9-6.8,2.7c-1.8,1.8-2.7,4-2.7,6.8v85.1c0,2.8,0.9,5,2.7,6.8c1.8,1.8,4,2.7,6.8,2.7h18.9
		c2.8,0,5-0.9,6.8-2.7C546.8,868.6,547.7,866.3,547.7,863.6z"/>
</g>
</svg>
