<?xml version="1.0" encoding="utf-8"?>
<!-- Generator: Adobe Illustrator 16.0.0, SVG Export Plug-In . SVG Version: 6.00 Build 0)  -->
<!DOCTYPE svg PUBLIC "-//W3C//DTD SVG 1.1//EN" "http://www.w3.org/Graphics/SVG/1.1/DTD/svg11.dtd">
<svg version="1.1" id="Layer_1" xmlns="http://www.w3.org/2000/svg" xmlns:xlink="http://www.w3.org/1999/xlink" x="0px" y="0px"
	 width="260px" height="260px" viewBox="0 0 260 260" enable-background="new 0 0 260 260" xml:space="preserve">
<g>
	<path fill="#3DC9B3" d="M130,5.4C61.2,5.4,5.4,61.2,5.4,130c0,68.8,55.8,124.6,124.6,124.6c68.8,0,124.6-55.8,124.6-124.6
		C254.6,61.2,198.8,5.4,130,5.4z M110.7,159.5c-2,9.1-4.5,16.3-7.7,21.4c-3.2,5.1-7.4,8.9-12.5,11.3s-11.8,3.6-20,3.6
		c-4.8,0-9.5-0.6-14.5-2V172c4,1.1,8.4,1.6,11.9,1.6c4.9,0,8.6-1.3,11.1-4c2.5-2.7,4.4-7.3,5.7-13.5L104.4,64h26.7L110.7,159.5z
		 M193.4,127.8c-7.1,4.9-17.5,7.2-31,7.2H158v1.5c0,6.7,3.9,10.1,11.4,10.1c3.6,0,7.2-0.5,10.7-1.6c3.5-1.1,7.9-2.8,11.9-5.1v18.7
		c-5,2.6-9.9,4.4-14.3,5.4c-4.4,1-9.5,1.5-15.3,1.5c-9.7,0-17.2-2.7-22.6-8.1c-5.4-5.4-8.1-12.9-8.1-22.5c0-9.6,1.9-18.3,5.7-26
		c3.8-7.7,9-13.6,15.7-17.6c6.6-4,14.3-6,23-6c8.7,0,15.5,2,20.5,5.9c5,3.9,7.5,9.1,7.5,15.6C204.1,116,200.5,122.9,193.4,127.8z"/>
	<path fill="#3DC9B3" d="M173.2,103.3c-2.8,0-5.4,1.7-7.8,4.8c-2.4,3.2-3.9,6.9-4.4,10.9h2c5,0,8.9-1,11.7-2.9
		c2.8-1.9,4.2-4.4,4.2-7.5c0-1.5-0.5-2.7-1.4-3.7C176.7,103.8,175.2,103.3,173.2,103.3z"/>
</g>
</svg>
