<?xml version="1.0" encoding="utf-8"?>
<!-- Generator: Adobe Illustrator 16.0.0, SVG Export Plug-In . SVG Version: 6.00 Build 0)  -->
<!DOCTYPE svg PUBLIC "-//W3C//DTD SVG 1.1//EN" "http://www.w3.org/Graphics/SVG/1.1/DTD/svg11.dtd">
<svg version="1.1" id="Layer_1" xmlns="http://www.w3.org/2000/svg" xmlns:xlink="http://www.w3.org/1999/xlink" x="0px" y="0px"
	 width="2396.9px" height="2402.6px" viewBox="5489.5 2994 2396.9 2402.6" enable-background="new 5489.5 2994 2396.9 2402.6"
	 xml:space="preserve">
<g>
	<rect x="5489.5" y="2994" fill="#EFEBEB" width="479.8" height="479.8"/>
	<rect x="6447.4" y="2994" fill="#EFEBEB" width="479.8" height="479.8"/>
	<rect x="5969.9" y="3475.7" fill="#EFEBEB" width="479.8" height="479.8"/>
	<rect x="6926.8" y="3475.7" fill="#EFEBEB" width="479.8" height="479.8"/>
	<rect x="5489.5" y="3955.9" fill="#EFEBEB" width="479.8" height="479.8"/>
	<rect x="6447.4" y="3955.9" fill="#EFEBEB" width="479.8" height="479.8"/>
	<rect x="5489.5" y="4916.8" fill="#EFEBEB" width="479.8" height="479.8"/>
	<rect x="6447.4" y="4916.8" fill="#EFEBEB" width="479.8" height="479.8"/>
	<rect x="5969.9" y="4436.7" fill="#EFEBEB" width="479.8" height="479.8"/>
	<rect x="7406.6" y="2994" fill="#EFEBEB" width="479.8" height="479.8"/>
	<rect x="7406.6" y="3955.9" fill="#EFEBEB" width="479.8" height="479.8"/>
	<rect x="7406.6" y="4916.8" fill="#EFEBEB" width="479.8" height="479.8"/>
	<rect x="6926.8" y="4436.7" fill="#EFEBEB" width="479.8" height="479.8"/>
	<g>
		<ellipse fill="#F7A537" cx="6689.8" cy="3826.7" rx="40.7" ry="44.7"/>
		<circle fill="#00C3D0" cx="6734.6" cy="3713.2" r="104.3"/>
		<circle fill="#00C3D0" cx="6641" cy="3713.2" r="104.3"/>
		<ellipse fill="#FBB03B" cx="6689.8" cy="3742.4" rx="79.2" ry="86.9"/>
		<ellipse fill="#FBB03B" cx="6724" cy="3803" rx="40.7" ry="44.7"/>
		<ellipse fill="#FBB03B" cx="6654.2" cy="3803" rx="40.7" ry="44.7"/>
		<g>
			<ellipse fill="#F7A537" cx="6647.5" cy="3727.5" rx="26.7" ry="29.6"/>
			<circle fill="#FFFFFF" cx="6647.5" cy="3729" r="21.3"/>
			<circle fill="#F15A24" cx="6647.5" cy="3729" r="15.5"/>
			<path fill="#F7931E" d="M6647.5,3705.1c-11.7,0-21.3,9.2-21.3,21c0,0.2,0,0.2,0,0.2h42.5c0,0,0,0,0-0.2
				C6668.7,3714.4,6659.2,3705.1,6647.5,3705.1z"/>
		</g>
		<g>
			<ellipse fill="#F7A537" cx="6729.2" cy="3727.5" rx="26.7" ry="29.6"/>
			<circle fill="#FFFFFF" cx="6729.2" cy="3729" r="21.3"/>
			<circle fill="#F15A24" cx="6729.2" cy="3729" r="14.8"/>
			<path fill="#F7931E" d="M6729.2,3705.1c-11.7,0-21.3,9.2-21.3,21c0,0.2,0,0.2,0,0.2h42.5c0,0,0,0,0-0.2
				C6750.4,3714.4,6740.9,3705.1,6729.2,3705.1z"/>
		</g>
		<circle fill="#F15A24" cx="6681.1" cy="3784.3" r="14.4"/>
		<path fill="#F15A24" d="M6711.8,3784.3c0,7.9-6.4,14.4-14.4,14.4c-7.9,0-14.4-6.4-14.4-14.4c0-7.9,6.4-14.4,14.4-14.4
			S6711.8,3776.4,6711.8,3784.3z"/>
		<circle fill="#F15A24" cx="6690.4" cy="3790.9" r="11.9"/>
		<ellipse fill="#00C3D0" cx="6690.3" cy="3670.6" rx="41.6" ry="26.7"/>
		<g>
			<circle fill="#FBB03B" cx="6628.8" cy="3622.8" r="25.4"/>
			<circle fill="#FBB03B" cx="6750.5" cy="3622.8" r="25.4"/>
			<circle fill="#F7A537" cx="6750.5" cy="3622.8" r="19.4"/>
			<circle fill="#F7A537" cx="6628.8" cy="3622.8" r="19.4"/>
		</g>
	</g>
	<g>
		<ellipse fill="#FBB03B" cx="5740.4" cy="3716.5" rx="97.3" ry="106.7"/>
		<ellipse fill="#F7A537" cx="5739.4" cy="3792.8" rx="60.7" ry="55.3"/>
		<g>
			<ellipse fill="#F7A537" cx="5697.1" cy="3714.6" rx="26.7" ry="29.6"/>
			<circle fill="#FFFFFF" cx="5697.1" cy="3716.1" r="21.3"/>
			<circle fill="#F15A24" cx="5697.1" cy="3716.1" r="15.5"/>
		</g>
		<g>
			<ellipse fill="#F7A537" cx="5778.8" cy="3714.6" rx="26.7" ry="29.6"/>
			<circle fill="#FFFFFF" cx="5778.8" cy="3716.1" r="21.3"/>
			<circle fill="#F15A24" cx="5778.8" cy="3716.1" r="14.8"/>
			<path fill="#F7931E" d="M5778.8,3692.2c-11.7,0-21.3,9.2-21.3,21c0,0.2,0,0.2,0,0.2h42.5c0,0,0,0,0-0.2
				C5800,3701.5,5790.5,3692.2,5778.8,3692.2z"/>
		</g>
		<g>
			<circle fill="#F15A24" cx="5728.6" cy="3789.8" r="17.8"/>
			<path fill="#F15A24" d="M5766.6,3789.8c0,9.8-8,17.8-17.8,17.8c-9.8,0-17.8-8-17.8-17.8s8-17.8,17.8-17.8
				C5758.7,3772,5766.6,3780,5766.6,3789.8z"/>
			<circle fill="#F15A24" cx="5740.1" cy="3798" r="14.8"/>
		</g>
		
			<ellipse transform="matrix(-0.7071 -0.7071 0.7071 -0.7071 7084.3906 10228.2871)" fill="#FBB03B" cx="5660.5" cy="3646.9" rx="38.3" ry="29.6"/>
		<path fill="#FBB03B" d="M5846,3618.7c12,12,9.2,34.4-6.4,49.9c-15.5,15.5-37.9,18.4-49.9,6.4s-9.2-34.4,6.4-49.9
			C5811.7,3609.6,5834,3606.7,5846,3618.7z"/>
		<path fill="#F7A537" d="M5839.4,3625.4c9.2,9.2,7,26.2-4.9,38.1s-28.9,14-38.1,4.9c-9.2-9.2-7-26.2,4.9-38.1
			C5813.2,3618.4,5830.2,3616.2,5839.4,3625.4z"/>
		
			<ellipse transform="matrix(-0.7071 -0.7071 0.7071 -0.7071 7084.4263 10228.2617)" fill="#F7A537" cx="5660.5" cy="3646.9" rx="29.2" ry="22.6"/>
	</g>
	<g>
		<ellipse fill="#FBB03B" cx="7179.9" cy="3255.4" rx="97.3" ry="106.7"/>
		<ellipse fill="#F7A537" cx="7178.9" cy="3331.7" rx="60.7" ry="55.3"/>
		<g>
			<ellipse fill="#F7A537" cx="7136.6" cy="3253.5" rx="26.7" ry="29.6"/>
			<circle fill="#FFFFFF" cx="7136.6" cy="3255" r="21.3"/>
			<circle fill="#F15A24" cx="7136.6" cy="3255" r="15.5"/>
			<path fill="#F7931E" d="M7136.6,3231.1c-11.7,0-21.3,9.2-21.3,21c0,0.2,0,0.2,0,0.2h42.5c0,0,0,0,0-0.2
				C7157.8,3240.4,7148.3,3231.1,7136.6,3231.1z"/>
		</g>
		<g>
			<ellipse fill="#F7A537" cx="7218.3" cy="3253.5" rx="26.7" ry="29.6"/>
			<circle fill="#FFFFFF" cx="7218.3" cy="3255" r="21.3"/>
			<circle fill="#F15A24" cx="7218.3" cy="3255" r="14.8"/>
			<path fill="#F7931E" d="M7218.3,3231.1c-11.7,0-21.3,9.2-21.3,21c0,0.2,0,0.2,0,0.2h42.5c0,0,0,0,0-0.2
				C7239.5,3240.4,7230,3231.1,7218.3,3231.1z"/>
		</g>
		<path fill="#F15A24" d="M7208,3328.7c0,9.8-13.1,17.8-29.3,17.8s-29.3-8-29.3-17.8s13.1-17.8,29.3-17.8
			C7194.8,3310.9,7208,3318.9,7208,3328.7z"/>
		
			<ellipse transform="matrix(-0.7071 -0.7071 0.7071 -0.7071 9867.5547 10459.0244)" fill="#FBB03B" cx="7099.9" cy="3185.9" rx="38.3" ry="29.6"/>
		<path fill="#FBB03B" d="M7285.5,3157.6c12,12,9.2,34.4-6.4,49.9c-15.5,15.5-37.9,18.4-49.9,6.4s-9.2-34.4,6.4-49.9
			C7251.2,3148.5,7273.5,3145.6,7285.5,3157.6z"/>
		<path fill="#F7A537" d="M7278.9,3164.3c9.2,9.2,7,26.2-4.9,38.1c-11.9,11.9-28.9,14-38.1,4.9c-9.2-9.2-7-26.2,4.9-38.1
			C7252.7,3157.3,7269.7,3155.1,7278.9,3164.3z"/>
		
			<ellipse transform="matrix(-0.7071 -0.7071 0.7071 -0.7071 9867.6484 10458.9688)" fill="#F7A537" cx="7099.9" cy="3185.9" rx="29.2" ry="22.6"/>
	</g>
	<g>
		<ellipse fill="#FBB03B" cx="6697.9" cy="4664.1" rx="97.3" ry="106.7"/>
		<ellipse fill="#F7A537" cx="6696.9" cy="4740.4" rx="60.7" ry="55.3"/>
		<g>
			<ellipse fill="#F7A537" cx="6654.6" cy="4662.2" rx="26.7" ry="29.6"/>
			<circle fill="#FFFFFF" cx="6654.6" cy="4663.8" r="21.3"/>
			<circle fill="#F15A24" cx="6654.6" cy="4663.8" r="15.5"/>
		</g>
		<g>
			<ellipse fill="#F7A537" cx="6736.3" cy="4662.2" rx="26.7" ry="29.6"/>
			<circle fill="#FFFFFF" cx="6736.3" cy="4663.8" r="21.3"/>
			<circle fill="#F15A24" cx="6736.3" cy="4663.8" r="14.8"/>
		</g>
		<path fill="#F15A24" d="M6726,4737.5c0,9.8-13.1,17.8-29.3,17.8s-29.3-8-29.3-17.8s13.1-17.8,29.3-17.8
			C6712.8,4719.6,6726,4727.6,6726,4737.5z"/>
		
			<ellipse transform="matrix(-0.7071 -0.7071 0.7071 -0.7071 8048.958 12522.9854)" fill="#FBB03B" cx="6618" cy="4594.5" rx="38.3" ry="29.6"/>
		<path fill="#FBB03B" d="M6803.5,4566.3c12,12,9.2,34.4-6.4,49.9c-15.5,15.5-37.9,18.4-49.9,6.4s-9.2-34.4,6.4-49.9
			C6769.2,4557.2,6791.5,4554.3,6803.5,4566.3z"/>
		<path fill="#F7A537" d="M6796.9,4573c9.2,9.2,7,26.2-4.9,38.1c-11.9,11.9-28.9,14-38.1,4.9c-9.2-9.2-7-26.2,4.9-38.1
			C6770.7,4566,6787.7,4563.8,6796.9,4573z"/>
		
			<ellipse transform="matrix(-0.7071 -0.7071 0.7071 -0.7071 8048.793 12522.9775)" fill="#F7A537" cx="6618" cy="4594.5" rx="29.2" ry="22.6"/>
	</g>
	<g>
		<ellipse fill="#F7A537" cx="7647.9" cy="3319.4" rx="56.5" ry="35.3"/>
		<ellipse fill="#FBB03B" cx="7647.7" cy="3249.5" rx="79.2" ry="86.9"/>
		<ellipse fill="#FBB03B" cx="7687.5" cy="3308.7" rx="56.5" ry="35.3"/>
		<ellipse fill="#FBB03B" cx="7605.5" cy="3308.7" rx="56.5" ry="35.3"/>
		<g>
			<ellipse fill="#F7A537" cx="7605.4" cy="3234.6" rx="26.7" ry="29.6"/>
			<circle fill="#FFFFFF" cx="7605.4" cy="3236.1" r="21.3"/>
			<circle fill="#F15A24" cx="7605.4" cy="3236.1" r="15.5"/>
			<path fill="#F7931E" d="M7605.4,3212.2c-11.7,0-21.3,9.2-21.3,21c0,0.2,0,0.2,0,0.2h42.5c0,0,0,0,0-0.2
				C7626.6,3221.5,7617.1,3212.2,7605.4,3212.2z"/>
		</g>
		<g>
			<ellipse fill="#F7A537" cx="7687.1" cy="3234.6" rx="26.7" ry="29.6"/>
			<circle fill="#FFFFFF" cx="7687.1" cy="3236.1" r="21.3"/>
			<circle fill="#F15A24" cx="7687.1" cy="3236.1" r="14.8"/>
			<path fill="#F7931E" d="M7687.1,3212.2c-11.7,0-21.2,9.2-21.2,21c0,0.2,0,0.2,0,0.2h42.5c0,0,0,0,0-0.2
				C7708.3,3221.5,7698.8,3212.2,7687.1,3212.2z"/>
		</g>
		<circle fill="#F15A24" cx="7639" cy="3291.4" r="14.4"/>
		<path fill="#F15A24" d="M7669.7,3291.4c0,7.9-6.4,14.4-14.4,14.4c-7.9,0-14.4-6.4-14.4-14.4c0-7.9,6.4-14.4,14.4-14.4
			S7669.7,3283.5,7669.7,3291.4z"/>
		<circle fill="#F15A24" cx="7648.3" cy="3298" r="11.9"/>
		<circle fill="#FBB03B" cx="7678.7" cy="3152.9" r="19"/>
		<circle fill="#F7A537" cx="7678.7" cy="3152.9" r="14.5"/>
		<circle fill="#FBB03B" cx="7616" cy="3152.9" r="19"/>
		<circle fill="#F7A537" cx="7616" cy="3152.9" r="14.5"/>
	</g>
	<g>
		<ellipse fill="#FBB03B" cx="6214.8" cy="3743.3" rx="79.2" ry="86.9"/>
		<ellipse fill="#F7A537" cx="6215" cy="3794.2" rx="56.5" ry="35.3"/>
		<g>
			<ellipse fill="#F7A537" cx="6172.5" cy="3728.4" rx="26.7" ry="29.6"/>
			<circle fill="#FFFFFF" cx="6172.5" cy="3729.9" r="21.3"/>
			<circle fill="#F15A24" cx="6172.5" cy="3729.9" r="15.5"/>
			<path fill="#F7931E" d="M6172.5,3706c-11.7,0-21.3,9.2-21.3,21c0,0.2,0,0.2,0,0.2h42.5c0,0,0,0,0-0.2
				C6193.7,3715.3,6184.2,3706,6172.5,3706z"/>
		</g>
		<g>
			<ellipse fill="#F7A537" cx="6254.2" cy="3728.4" rx="26.7" ry="29.6"/>
			<circle fill="#FFFFFF" cx="6254.2" cy="3729.9" r="21.3"/>
			<circle fill="#F15A24" cx="6254.2" cy="3729.9" r="14.8"/>
			<path fill="#F7931E" d="M6254.2,3706c-11.7,0-21.2,9.2-21.2,21c0,0.2,0,0.2,0,0.2h42.5c0,0,0,0,0-0.2
				C6275.4,3715.3,6265.9,3706,6254.2,3706z"/>
		</g>
		<g>
			<circle fill="#F15A24" cx="6207.1" cy="3786.2" r="14.4"/>
			<path fill="#F15A24" d="M6237.8,3786.2c0,7.9-6.4,14.4-14.4,14.4c-7.9,0-14.4-6.4-14.4-14.4c0-7.9,6.4-14.4,14.4-14.4
				S6237.8,3778.3,6237.8,3786.2z"/>
			<circle fill="#F15A24" cx="6216.4" cy="3792.8" r="11.9"/>
		</g>
		<circle fill="#FBB03B" cx="6245.8" cy="3646.7" r="19"/>
		<circle fill="#F7A537" cx="6245.8" cy="3646.7" r="14.5"/>
		<circle fill="#FBB03B" cx="6183.1" cy="3646.7" r="19"/>
		<circle fill="#F7A537" cx="6183.1" cy="3646.7" r="14.5"/>
	</g>
	<g>
		<ellipse fill="#FBB03B" cx="7652.7" cy="3739.2" rx="79.2" ry="86.9"/>
		<ellipse fill="#F7A537" cx="7652.9" cy="3790.1" rx="56.5" ry="35.3"/>
		<g>
			<ellipse fill="#F7A537" cx="7610.4" cy="3724.3" rx="26.7" ry="29.6"/>
			<circle fill="#FFFFFF" cx="7610.4" cy="3725.8" r="21.3"/>
			<circle fill="#F15A24" cx="7610.4" cy="3725.8" r="15.5"/>
		</g>
		<g>
			<ellipse fill="#F7A537" cx="7692.1" cy="3724.3" rx="26.7" ry="29.6"/>
			<circle fill="#FFFFFF" cx="7692.1" cy="3725.8" r="21.3"/>
			<circle fill="#F15A24" cx="7692.1" cy="3725.8" r="14.8"/>
		</g>
		<ellipse fill="#F15A24" cx="7642.4" cy="3782.1" rx="8.4" ry="14.4"/>
		<ellipse fill="#F15A24" cx="7664.9" cy="3782.1" rx="8.4" ry="14.4"/>
		
			<ellipse transform="matrix(-0.7071 0.7071 -0.7071 -0.7071 15740.625 755.5342)" fill="#FBB03B" cx="7713.8" cy="3637.8" rx="46.3" ry="19"/>
		
			<ellipse transform="matrix(-0.7071 0.7071 -0.7071 -0.7071 15740.623 755.531)" fill="#F7A537" cx="7713.8" cy="3637.8" rx="35.3" ry="14.5"/>
		
			<ellipse transform="matrix(0.7071 0.7071 -0.7071 0.7071 4797.3066 -4306.4683)" fill="#FBB03B" cx="7597" cy="3637.6" rx="46.3" ry="19"/>
		
			<ellipse transform="matrix(0.7071 0.7071 -0.7071 0.7071 4797.1729 -4306.4214)" fill="#F7A537" cx="7597" cy="3637.6" rx="35.3" ry="14.5"/>
	</g>
	<g>
		<ellipse fill="#FBB03B" cx="7659.1" cy="4189" rx="79.2" ry="86.9"/>
		<ellipse fill="#F7A537" cx="7659.3" cy="4261.9" rx="93.9" ry="58.6"/>
		<g>
			<ellipse fill="#F7A537" cx="7616.8" cy="4174.1" rx="26.7" ry="29.6"/>
			<circle fill="#FFFFFF" cx="7616.8" cy="4175.6" r="21.3"/>
			<circle fill="#F15A24" cx="7616.8" cy="4175.6" r="15.5"/>
		</g>
		<g>
			<ellipse fill="#F7A537" cx="7698.5" cy="4174.1" rx="26.7" ry="29.6"/>
			<circle fill="#FFFFFF" cx="7698.5" cy="4175.6" r="21.3"/>
			<circle fill="#F15A24" cx="7698.5" cy="4175.6" r="14.8"/>
		</g>
		<path fill="#F15A24" d="M7703.3,4257c-8,10.5-19.4,15.2-25.5,10.5s-4.6-16.9,3.4-27.4s19.4-15.2,25.5-10.5
			C7712.8,4234.3,7711.3,4246.6,7703.3,4257z"/>
		<path fill="#F15A24" d="M7623,4257c8,10.5,19.4,15.2,25.5,10.5s4.6-16.9-3.4-27.4s-19.4-15.2-25.5-10.5
			C7613.5,4234.3,7615,4246.6,7623,4257z"/>
		<ellipse fill="#FBB03B" cx="7736.2" cy="4110.4" rx="46.3" ry="19"/>
		<path fill="#F7A537" d="M7771.5,4110.4c0,8-15.8,14.5-35.3,14.5s-35.3-6.5-35.3-14.5s15.8-14.5,35.3-14.5
			S7771.5,4102.4,7771.5,4110.4z"/>
		<path fill="#FBB03B" d="M7629.6,4110.4c0,10.5-20.7,19-46.3,19c-25.6,0-46.3-8.5-46.3-19s20.7-19,46.3-19
			S7629.6,4099.9,7629.6,4110.4z"/>
		<path fill="#F7A537" d="M7618.7,4110.4c0,8-15.8,14.5-35.3,14.5s-35.3-6.5-35.3-14.5s15.8-14.5,35.3-14.5
			S7618.7,4102.4,7618.7,4110.4z"/>
	</g>
	<g>
		<ellipse fill="#FBB03B" cx="7169.9" cy="5160.2" rx="79.2" ry="86.9"/>
		<ellipse fill="#F7A537" cx="7170.1" cy="5233.1" rx="70.2" ry="58.6"/>
		<g>
			<ellipse fill="#F7A537" cx="7127.6" cy="5145.3" rx="26.7" ry="29.6"/>
			<circle fill="#FFFFFF" cx="7127.6" cy="5146.8" r="21.3"/>
			<circle fill="#F15A24" cx="7127.6" cy="5146.8" r="15.5"/>
		</g>
		<g>
			<ellipse fill="#F7A537" cx="7209.3" cy="5145.3" rx="26.7" ry="29.6"/>
			<circle fill="#FFFFFF" cx="7209.3" cy="5146.8" r="21.3"/>
			<circle fill="#F15A24" cx="7209.3" cy="5146.8" r="14.8"/>
		</g>
		
			<ellipse transform="matrix(-0.7944 -0.6074 0.6074 -0.7944 9711.582 13790.9297)" fill="#F15A24" cx="7189.9" cy="5251.8" rx="9.7" ry="16.6"/>
		
			<ellipse transform="matrix(0.7944 -0.6074 0.6074 0.7944 -1719.9658 5422.7979)" fill="#F15A24" cx="7149.6" cy="5251.8" rx="9.7" ry="16.6"/>
		<path fill="#FBB03B" d="M7316.2,5013.5c7.4,7.4-7.2,34-32.7,59.5c-25.4,25.4-52.1,40.1-59.5,32.7s7.2-34,32.7-59.5
			S7308.8,5006.1,7316.2,5013.5z"/>
		<path fill="#F7A537" d="M7305.3,5024.4c5.7,5.7-5.5,26-24.9,45.4c-19.4,19.4-39.7,30.6-45.4,24.9c-5.7-5.7,5.5-26,24.9-45.4
			C7279.3,5029.9,7299.6,5018.8,7305.3,5024.4z"/>
		<path fill="#FBB03B" d="M7113.1,5105.6c-7.4,7.4-34-7.2-59.5-32.7c-25.4-25.4-40.1-52.1-32.7-59.5c7.4-7.4,34,7.2,59.5,32.7
			S7120.5,5098.2,7113.1,5105.6z"/>
		<path fill="#F7A537" d="M7102.2,5094.7c-5.7,5.7-26-5.5-45.4-24.9c-19.4-19.4-30.6-39.7-24.9-45.4c5.7-5.7,26,5.5,45.4,24.9
			C7096.7,5068.7,7107.8,5089.1,7102.2,5094.7z"/>
	</g>
	<g>
		<ellipse fill="#FBB03B" cx="5751.9" cy="4693.6" rx="79.2" ry="96.1"/>
		<g>
			<ellipse fill="#F7A537" cx="5709.6" cy="4692.6" rx="26.7" ry="29.6"/>
			<circle fill="#FFFFFF" cx="5709.6" cy="4694.1" r="21.3"/>
			<circle fill="#F15A24" cx="5709.6" cy="4694.1" r="15.5"/>
			<path fill="#F7931E" d="M5709.6,4670.2c-11.7,0-21.3,9.2-21.3,21c0,0.2,0,0.2,0,0.2h42.5c0,0,0,0,0-0.2
				C5730.8,4679.5,5721.3,4670.2,5709.6,4670.2z"/>
		</g>
		<g>
			<ellipse fill="#F7A537" cx="5791.3" cy="4692.6" rx="26.7" ry="29.6"/>
			<circle fill="#FFFFFF" cx="5791.3" cy="4694.1" r="21.3"/>
			<circle fill="#F15A24" cx="5791.3" cy="4694.1" r="14.8"/>
			<path fill="#F7931E" d="M5791.3,4670.2c-11.7,0-21.2,9.2-21.2,21c0,0.2,0,0.2,0,0.2h42.5c0,0,0,0,0-0.2
				C5812.5,4679.5,5803,4670.2,5791.3,4670.2z"/>
		</g>
		<g>
			<circle fill="#F15A24" cx="5748" cy="4762.1" r="9.4"/>
			<circle fill="#F15A24" cx="5758.7" cy="4762.1" r="9.4"/>
			<circle fill="#F15A24" cx="5754.1" cy="4766.4" r="7.8"/>
		</g>
		<path fill="#FBB03B" d="M5927.9,4610.9c0,37.8-30.6,68.4-68.4,68.4s-68.4-30.6-68.4-68.4c0-37.8,30.6-68.4,68.4-68.4
			S5927.9,4573.1,5927.9,4610.9z"/>
		<path fill="#F7A537" d="M5911.7,4610.9c0,28.8-23.4,52.2-52.2,52.2s-52.2-23.4-52.2-52.2c0-28.8,23.4-52.2,52.2-52.2
			S5911.7,4582,5911.7,4610.9z"/>
		<path fill="#FBB03B" d="M5713.1,4610.9c0,37.8-30.6,68.4-68.4,68.4s-68.4-30.6-68.4-68.4c0-37.8,30.6-68.4,68.4-68.4
			C5682.4,4542.5,5713.1,4573.1,5713.1,4610.9z"/>
		<path fill="#F7A537" d="M5696.9,4610.9c0,28.8-23.4,52.2-52.2,52.2c-28.8,0-52.2-23.4-52.2-52.2c0-28.8,23.4-52.2,52.2-52.2
			C5673.5,4558.7,5696.9,4582,5696.9,4610.9z"/>
	</g>
	<g>
		<ellipse fill="#F7A537" cx="7187" cy="3844.4" rx="40.7" ry="44.7"/>
		<ellipse fill="#FBB03B" cx="7187" cy="3760.1" rx="79.2" ry="86.9"/>
		<ellipse fill="#FBB03B" cx="7228.2" cy="3820.7" rx="48.8" ry="53.6"/>
		<ellipse fill="#FBB03B" cx="7144.4" cy="3820.7" rx="48.8" ry="53.6"/>
		<g>
			<ellipse fill="#F7A537" cx="7144.7" cy="3745.2" rx="26.7" ry="29.6"/>
			<circle fill="#FFFFFF" cx="7144.7" cy="3746.7" r="21.3"/>
			<circle fill="#F15A24" cx="7144.7" cy="3746.7" r="15.5"/>
			<path fill="#F7931E" d="M7144.7,3722.8c-11.7,0-21.3,9.2-21.3,21c0,0.2,0,0.2,0,0.2h42.5c0,0,0,0,0-0.2
				C7165.9,3732.1,7156.4,3722.8,7144.7,3722.8z"/>
		</g>
		<g>
			<ellipse fill="#F7A537" cx="7226.4" cy="3745.2" rx="26.7" ry="29.6"/>
			<circle fill="#FFFFFF" cx="7226.4" cy="3746.7" r="21.3"/>
			<circle fill="#F15A24" cx="7226.4" cy="3746.7" r="14.8"/>
			<path fill="#F7931E" d="M7226.4,3722.8c-11.7,0-21.3,9.2-21.3,21c0,0.2,0,0.2,0,0.2h42.5c0,0,0,0,0-0.2
				C7247.6,3732.1,7238.1,3722.8,7226.4,3722.8z"/>
		</g>
		<circle fill="#F15A24" cx="7178.3" cy="3802" r="14.4"/>
		<path fill="#F15A24" d="M7209,3802c0,7.9-6.4,14.4-14.4,14.4c-7.9,0-14.4-6.4-14.4-14.4c0-7.9,6.4-14.4,14.4-14.4
			S7209,3794.1,7209,3802z"/>
		<circle fill="#F15A24" cx="7187.6" cy="3808.6" r="11.9"/>
		<g>
			<path fill="#FBB03B" d="M7276.6,3653.3c-14.9,33.4-39.8,54.7-55.7,47.6c-15.8-7.1-16.6-39.9-1.7-73.2
				c14.9-33.4,39.8-54.7,55.7-47.6C7290.7,3587.1,7291.5,3619.9,7276.6,3653.3z"/>
			
				<ellipse transform="matrix(-0.9131 -0.4077 0.4077 -0.9131 12381.6875 9919.4727)" fill="#F7A537" cx="7247.8" cy="3640.4" rx="24" ry="50.5"/>
		</g>
		<g>
			<path fill="#FBB03B" d="M7158,3621.8c15.9,32.9,16.1,65.7,0.4,73.3c-15.6,7.5-41.2-13-57-46c-15.9-32.9-16.1-65.7-0.4-73.3
				C7116.5,3568.3,7142.1,3588.9,7158,3621.8z"/>
			<path fill="#F7A537" d="M7151.3,3625c12.1,25.1,12.3,50.2,0.3,55.9c-11.9,5.8-31.4-10-43.5-35.1s-12.3-50.2-0.3-55.9
				C7119.7,3584.2,7139.1,3599.9,7151.3,3625z"/>
		</g>
	</g>
	<g>
		<ellipse fill="#FBB03B" cx="7655.9" cy="4679.4" rx="91.4" ry="116.2"/>
		<g>
			<ellipse fill="#F7A537" cx="7613.6" cy="4635.2" rx="26.7" ry="29.6"/>
			<circle fill="#FFFFFF" cx="7613.6" cy="4636.7" r="21.3"/>
			<circle fill="#F15A24" cx="7613.6" cy="4636.7" r="15.5"/>
		</g>
		<g>
			<ellipse fill="#F7A537" cx="7695.3" cy="4635.2" rx="26.7" ry="29.6"/>
			<circle fill="#FFFFFF" cx="7695.3" cy="4636.7" r="21.3"/>
			<circle fill="#F15A24" cx="7695.3" cy="4636.7" r="14.8"/>
		</g>
		<path fill="#F15A24" d="M7697.1,4760.1c-8,9.3-19.4,13.5-25.5,9.3c-6.1-4.2-4.6-15,3.4-24.3c8-9.3,19.4-13.5,25.5-9.3
			C7706.6,4740,7705.1,4750.9,7697.1,4760.1z"/>
		<path fill="#F15A24" d="M7619.8,4760.1c8,9.3,19.4,13.5,25.5,9.3c6.1-4.2,4.6-15-3.4-24.3c-8-9.3-19.4-13.5-25.5-9.3
			C7610.3,4740,7611.8,4750.9,7619.8,4760.1z"/>
		<ellipse fill="#FBB03B" cx="7733" cy="4571.5" rx="46.3" ry="19"/>
		<path fill="#F7A537" d="M7768.3,4571.5c0,8-15.8,14.5-35.3,14.5s-35.3-6.5-35.3-14.5s15.8-14.5,35.3-14.5
			S7768.3,4563.5,7768.3,4571.5z"/>
		<path fill="#FBB03B" d="M7626.4,4571.5c0,10.5-20.7,19-46.3,19s-46.3-8.5-46.3-19s20.7-19,46.3-19
			C7605.7,4552.5,7626.4,4561,7626.4,4571.5z"/>
		<path fill="#F7A537" d="M7615.5,4571.5c0,8-15.8,14.5-35.3,14.5s-35.3-6.5-35.3-14.5s15.8-14.5,35.3-14.5
			S7615.5,4563.5,7615.5,4571.5z"/>
		<circle fill="#F15A24" cx="7655.9" cy="4562.5" r="41.8"/>
	</g>
	<g>
		<ellipse fill="#FBB03B" cx="6206.8" cy="3239" rx="115.4" ry="95.3"/>
		<ellipse fill="#F7A537" cx="6155.1" cy="3231.8" rx="32.7" ry="36.1"/>
		<circle fill="#FFFFFF" cx="6155.1" cy="3233.7" r="26"/>
		<ellipse fill="#F15A24" cx="6155.1" cy="3233.7" rx="9.7" ry="18.9"/>
		<path fill="#F7931E" d="M6155.1,3204.5c-14.3,0-26,11.1-26,25.5c0,0.2,0,0.1,0,0.1h51.9c0,0,0,0.1,0-0.1
			C6181.1,3215.6,6169.4,3204.5,6155.1,3204.5z"/>
		<ellipse fill="#F7A537" cx="6254.9" cy="3231.8" rx="32.7" ry="36.1"/>
		<circle fill="#FFFFFF" cx="6254.9" cy="3233.7" r="26"/>
		<ellipse fill="#F15A24" cx="6256.5" cy="3233.7" rx="9.7" ry="18.9"/>
		<path fill="#F7931E" d="M6254.9,3204.5c-14.3,0-26,11.1-26,25.5c0,0.2,0,0.1,0,0.1h51.9c0,0,0,0.1,0-0.1
			C6280.9,3215.6,6269.3,3204.5,6254.9,3204.5z"/>
		<ellipse fill="#F7A537" cx="6206.8" cy="3310.2" rx="37.7" ry="34.9"/>
		<g>
			<circle fill="#F15A24" cx="6200.7" cy="3302.4" r="9.6"/>
			<circle fill="#F15A24" cx="6211.6" cy="3302.4" r="9.6"/>
			<circle fill="#F15A24" cx="6206.9" cy="3306.8" r="7.9"/>
		</g>
		<g>
			<path fill="#FBB03B" d="M6146.5,3124.1c-3.9-2.8-8.1-1.2-9.2,3.5l-10.8,45.6c-1.1,4.7,1.7,7.3,6.2,5.5l49.2-20.1
				c4.5-1.8,4.8-5.9,0.9-8.7L6146.5,3124.1z"/>
			<path fill="#F7A537" d="M6150.4,3135.5c-3.9-2.8-8.1-1.2-9.2,3.5l-6.2,25.7c-1.1,4.7,1.6,7.1,6.1,5.3l28.5-11.6
				c4.5-1.8,4.9-5.7,1-8.5L6150.4,3135.5z"/>
		</g>
		<g>
			<path fill="#FBB03B" d="M6283.6,3129.4c-0.8-4.8-4.9-6.6-9-4.1l-39.9,24.6c-4.1,2.5-4,6.4,0.5,8.3l49,20.6
				c4.5,1.9,7.6-0.8,6.8-5.5L6283.6,3129.4z"/>
			<path fill="#F7A537" d="M6278.3,3140.2c-0.8-4.8-4.9-6.6-9-4.1l-22.6,13.8c-4.1,2.5-3.9,6.2,0.6,8l28.4,11.9
				c4.5,1.9,7.5-0.5,6.7-5.3L6278.3,3140.2z"/>
		</g>
	</g>
	<g>
		<path fill="#F7A537" d="M7790.2,5177.2c0,54.9-60.4,99.4-134.9,99.4s-134.9-44.5-134.9-99.4s60.4-99.4,134.9-99.4
			S7790.2,5122.3,7790.2,5177.2z"/>
		<ellipse fill="#FBB03B" cx="7655.3" cy="5159.2" rx="107.4" ry="99.4"/>
		<g>
			<ellipse fill="#F7A537" cx="7601" cy="5089.9" rx="26.7" ry="29.6"/>
			<circle fill="#FFFFFF" cx="7601" cy="5091.4" r="21.3"/>
			<circle fill="#F15A24" cx="7601" cy="5091.4" r="15.5"/>
		</g>
		<g>
			<ellipse fill="#F7A537" cx="7709.7" cy="5089.9" rx="26.7" ry="29.6"/>
			<circle fill="#FFFFFF" cx="7709.7" cy="5091.4" r="21.3"/>
			<circle fill="#F15A24" cx="7709.7" cy="5091.4" r="14.8"/>
		</g>
		<circle fill="#F15A24" cx="7633.5" cy="5192.7" r="17.7"/>
		<path fill="#F15A24" d="M7694.8,5192.7c0,9.8-7.9,17.7-17.7,17.7c-9.8,0-17.7-7.9-17.7-17.7s7.9-17.7,17.7-17.7
			S7694.8,5182.9,7694.8,5192.7z"/>
	</g>
	<g>
		<ellipse fill="#FBB03B" cx="6223.4" cy="4683.2" rx="96.1" ry="99.3"/>
		<g>
			<ellipse fill="#F7A537" cx="6195" cy="4626" rx="17.6" ry="19.5"/>
			<circle fill="#FFFFFF" cx="6195" cy="4627" r="14"/>
			<circle fill="#F15A24" cx="6195" cy="4627" r="10.2"/>
			<path fill="#F7931E" d="M6195,4611.2c-7.7,0-14,5.9-14,13.6c0,0.1,0-0.1,0-0.1h28c0,0,0,0.2,0,0.1
				C6209,4617.1,6202.7,4611.2,6195,4611.2z"/>
		</g>
		<g>
			<ellipse fill="#F7A537" cx="6248.9" cy="4626" rx="17.6" ry="19.5"/>
			<circle fill="#FFFFFF" cx="6248.9" cy="4627" r="14"/>
			<circle fill="#F15A24" cx="6248.9" cy="4627" r="9.8"/>
			<path fill="#F7931E" d="M6248.9,4611.2c-7.7,0-14,5.9-14,13.6c0,0.1,0-0.1,0-0.1h28c0,0,0,0.2,0,0.1
				C6262.9,4617.1,6256.6,4611.2,6248.9,4611.2z"/>
		</g>
		<ellipse fill="#F7A537" cx="6223.4" cy="4705.2" rx="62.6" ry="59.3"/>
		<circle fill="#F15A24" cx="6203.6" cy="4705.8" r="17.7"/>
		<path fill="#F15A24" d="M6264.9,4705.8c0,9.8-7.9,17.7-17.7,17.7c-9.8,0-17.7-7.9-17.7-17.7s7.9-17.7,17.7-17.7
			C6257,4688.1,6264.9,4696,6264.9,4705.8z"/>
		<g>
			<path fill="#FBB03B" d="M6304.4,4580.5c0.2-4.8-3.4-7.5-8-5.8l-44.1,15.9c-4.6,1.6-5.2,5.4-1.2,8.2l43.7,30.2
				c4,2.8,7.6,0.8,7.7-4L6304.4,4580.5z"/>
			<path fill="#F7A537" d="M6297,4590.1c0.2-4.8-3.4-7.5-8-5.8l-24.9,8.9c-4.6,1.6-5.1,5.2-1.1,8l25.3,17.5c4,2.8,7.4,1,7.6-3.8
				L6297,4590.1z"/>
		</g>
		<g>
			<path fill="#FBB03B" d="M6143.4,4580.5c-0.2-4.8,3.4-7.5,8-5.8l44.2,15.9c4.6,1.6,5.2,5.4,1.2,8.2l-43.7,30.2
				c-4,2.8-7.6,0.8-7.7-4L6143.4,4580.5z"/>
			<path fill="#F7A537" d="M6150.8,4590.1c-0.2-4.8,3.4-7.5,8-5.8l24.9,8.9c4.6,1.6,5.1,5.2,1.1,8l-25.3,17.5c-4,2.8-7.4,1-7.6-3.8
				L6150.8,4590.1z"/>
		</g>
	</g>
	<g>
		<g>
			<path fill="#FBB03B" d="M5811.4,5104.7c0.2-4.8-3.4-7.5-8-5.8l-44.1,15.9c-4.6,1.6-5.2,5.4-1.2,8.2l43.7,30.2
				c4,2.8,7.6,0.8,7.7-4L5811.4,5104.7z"/>
			<path fill="#F7A537" d="M5804,5114.3c0.2-4.8-3.4-7.5-8-5.8l-24.9,8.9c-4.6,1.6-5.1,5.2-1.1,8l25.3,17.5c4,2.8,7.4,1,7.6-3.8
				L5804,5114.3z"/>
		</g>
		<g>
			<path fill="#FBB03B" d="M5668.4,5104.7c-0.2-4.8,3.4-7.5,8-5.8l44.2,15.9c4.6,1.6,5.2,5.4,1.2,8.2l-43.7,30.2
				c-4,2.8-7.6,0.8-7.7-4L5668.4,5104.7z"/>
			<path fill="#F7A537" d="M5675.8,5114.3c-0.2-4.8,3.4-7.5,8-5.8l24.9,8.9c4.6,1.6,5.1,5.2,1.1,8l-25.3,17.5c-4,2.8-7.4,1-7.6-3.8
				L5675.8,5114.3z"/>
		</g>
		<ellipse fill="#F7A537" cx="5739.4" cy="5280.4" rx="40.7" ry="44.7"/>
		<ellipse fill="#FBB03B" cx="5739.4" cy="5196.1" rx="79.2" ry="86.9"/>
		<ellipse fill="#FBB03B" cx="5773.6" cy="5256.7" rx="40.7" ry="44.7"/>
		<ellipse fill="#FBB03B" cx="5703.8" cy="5256.7" rx="40.7" ry="44.7"/>
		<g>
			<ellipse fill="#F7A537" cx="5697.1" cy="5181.2" rx="26.7" ry="29.6"/>
			<circle fill="#FFFFFF" cx="5697.1" cy="5182.7" r="21.3"/>
			<ellipse fill="#F15A24" cx="5697.1" cy="5182.7" rx="10.6" ry="15.5"/>
		</g>
		<g>
			<ellipse fill="#F7A537" cx="5778.8" cy="5181.2" rx="26.7" ry="29.6"/>
			<circle fill="#FFFFFF" cx="5778.8" cy="5182.7" r="21.3"/>
			<ellipse fill="#F15A24" cx="5778.8" cy="5182.7" rx="11.5" ry="14.8"/>
		</g>
		<circle fill="#F15A24" cx="5730.7" cy="5238" r="14.4"/>
		<path fill="#F15A24" d="M5761.4,5238c0,7.9-6.4,14.4-14.4,14.4c-7.9,0-14.4-6.4-14.4-14.4c0-7.9,6.4-14.4,14.4-14.4
			S5761.4,5230.1,5761.4,5238z"/>
		<circle fill="#F15A24" cx="5740" cy="5244.6" r="11.9"/>
	</g>
	<g>
		<ellipse fill="#FBB03B" cx="7193.2" cy="4216.3" rx="79.2" ry="86.9"/>
		<ellipse fill="#F7A537" cx="7193.4" cy="4267.2" rx="56.5" ry="35.3"/>
		<g>
			<ellipse fill="#F7A537" cx="7150.9" cy="4201.4" rx="26.7" ry="29.6"/>
			<circle fill="#FFFFFF" cx="7150.9" cy="4202.9" r="21.3"/>
			<circle fill="#F15A24" cx="7150.9" cy="4202.9" r="15.5"/>
			<path fill="#F7931E" d="M7150.9,4179c-11.7,0-21.3,9.2-21.3,21c0,0.2,0,0.2,0,0.2h42.5c0,0,0,0,0-0.2
				C7172.1,4188.3,7162.6,4179,7150.9,4179z"/>
		</g>
		<g>
			<ellipse fill="#F7A537" cx="7232.6" cy="4201.4" rx="26.7" ry="29.6"/>
			<circle fill="#FFFFFF" cx="7232.6" cy="4202.9" r="21.3"/>
			<circle fill="#F15A24" cx="7232.6" cy="4202.9" r="14.8"/>
			<path fill="#F7931E" d="M7232.6,4179c-11.7,0-21.2,9.2-21.2,21c0,0.2,0,0.2,0,0.2h42.5c0,0,0,0,0-0.2
				C7253.8,4188.3,7244.3,4179,7232.6,4179z"/>
		</g>
		<circle fill="#FBB03B" cx="7224.2" cy="4119.7" r="19"/>
		<circle fill="#F7A537" cx="7224.2" cy="4119.7" r="14.5"/>
		<circle fill="#FBB03B" cx="7161.5" cy="4119.7" r="19"/>
		<circle fill="#F7A537" cx="7161.5" cy="4119.7" r="14.5"/>
		<path fill="#F15A24" d="M7222.3,4258.6c0,9.8-13.1,17.8-29.3,17.8c-16.2,0-29.3-8-29.3-17.8c0-9.8,13.1-17.8,29.3-17.8
			C7209.1,4240.8,7222.3,4248.8,7222.3,4258.6z"/>
	</g>
	<g>
		<g>
			<path fill="#FBB03B" d="M6293.2,4094.1c0.2-4.8-3.4-7.5-8-5.8l-44.1,15.9c-4.6,1.6-5.2,5.4-1.2,8.2l43.7,30.2
				c4,2.8,7.6,0.8,7.7-4L6293.2,4094.1z"/>
			<path fill="#F7A537" d="M6285.8,4103.7c0.2-4.8-3.4-7.5-8-5.8l-24.9,8.9c-4.6,1.6-5.1,5.2-1.1,8l25.3,17.5c4,2.8,7.4,1,7.6-3.8
				L6285.8,4103.7z"/>
		</g>
		<g>
			<path fill="#FBB03B" d="M6150.2,4094.1c-0.2-4.8,3.4-7.5,8-5.8l44.2,15.9c4.6,1.6,5.2,5.4,1.2,8.2l-43.7,30.2
				c-4,2.8-7.6,0.8-7.7-4L6150.2,4094.1z"/>
			<path fill="#F7A537" d="M6157.6,4103.7c-0.2-4.8,3.4-7.5,8-5.8l24.9,8.9c4.6,1.6,5.1,5.2,1.1,8l-25.3,17.5c-4,2.8-7.4,1-7.6-3.8
				L6157.6,4103.7z"/>
		</g>
		<ellipse fill="#F7A537" cx="6221.2" cy="4269.8" rx="40.7" ry="44.7"/>
		<ellipse fill="#FBB03B" cx="6221.2" cy="4185.5" rx="79.2" ry="86.9"/>
		<ellipse fill="#FBB03B" cx="6255.4" cy="4246.1" rx="40.7" ry="44.7"/>
		<ellipse fill="#FBB03B" cx="6185.6" cy="4246.1" rx="40.7" ry="44.7"/>
		<g>
			<ellipse fill="#F7A537" cx="6178.9" cy="4170.6" rx="26.7" ry="29.6"/>
			<circle fill="#FFFFFF" cx="6178.9" cy="4172.1" r="21.3"/>
			<ellipse fill="#F15A24" cx="6178.9" cy="4172.1" rx="10.6" ry="15.5"/>
		</g>
		<g>
			<ellipse fill="#F7A537" cx="6260.6" cy="4170.6" rx="26.7" ry="29.6"/>
			<circle fill="#FFFFFF" cx="6260.6" cy="4172.1" r="21.3"/>
			<ellipse fill="#F15A24" cx="6260.6" cy="4172.1" rx="11.5" ry="14.8"/>
		</g>
		<path fill="#F15A24" d="M6248.3,4224.8c0,9.8-13.1,17.8-29.3,17.8c-16.2,0-29.3-8-29.3-17.8s13.1-17.8,29.3-17.8
			C6235.1,4207,6248.3,4215,6248.3,4224.8z"/>
	</g>
	<g>
		<g>
			<path fill="#FBB03B" d="M5801.4,3163.1c0.2-4.8-3.4-7.5-8-5.8l-44.1,15.9c-4.6,1.6-5.2,5.4-1.2,8.2l43.7,30.2
				c4,2.8,7.6,0.8,7.7-4L5801.4,3163.1z"/>
			<path fill="#F7A537" d="M5794,3172.7c0.2-4.8-3.4-7.5-8-5.8l-24.9,8.9c-4.6,1.6-5.1,5.2-1.1,8l25.3,17.5c4,2.8,7.4,1,7.6-3.8
				L5794,3172.7z"/>
		</g>
		<g>
			<path fill="#FBB03B" d="M5658.4,3163.1c-0.2-4.8,3.4-7.5,8-5.8l44.2,15.9c4.6,1.6,5.2,5.4,1.2,8.2l-43.7,30.2
				c-4,2.8-7.6,0.8-7.7-4L5658.4,3163.1z"/>
			<path fill="#F7A537" d="M5665.8,3172.7c-0.2-4.8,3.4-7.5,8-5.8l24.9,8.9c4.6,1.6,5.1,5.2,1.1,8l-25.3,17.5c-4,2.8-7.4,1-7.6-3.8
				L5665.8,3172.7z"/>
		</g>
		<ellipse fill="#F7A537" cx="5729.4" cy="3308.3" rx="49" ry="39.5"/>
		<ellipse fill="#FBB03B" cx="5729.4" cy="3244.3" rx="95.5" ry="76.8"/>
		<path fill="#FBB03B" d="M5819.7,3293.3c0,19.2-22,34.9-49,34.9c-27.1,0-49-15.6-49-34.9c0-19.2,22-34.9,49-34.9
			S5819.7,3274,5819.7,3293.3z"/>
		<ellipse fill="#FBB03B" cx="5686.5" cy="3293.3" rx="49" ry="34.9"/>
		<g>
			<ellipse fill="#F7A537" cx="5687.1" cy="3239.6" rx="31.8" ry="35.2"/>
			<circle fill="#FFFFFF" cx="5687.1" cy="3241.1" r="21.3"/>
			<ellipse fill="#F15A24" cx="5687.1" cy="3241.1" rx="10.6" ry="15.5"/>
		</g>
		<g>
			<ellipse fill="#F7A537" cx="5768.8" cy="3239.6" rx="26.7" ry="29.6"/>
			<circle fill="#FFFFFF" cx="5768.8" cy="3241.1" r="21.3"/>
			<ellipse fill="#F15A24" cx="5768.8" cy="3241.1" rx="11.5" ry="14.8"/>
		</g>
		<path fill="#F15A24" d="M5756.5,3293.8c0,9.8-13.1,17.8-29.3,17.8s-29.3-8-29.3-17.8s13.1-17.8,29.3-17.8
			C5743.3,3276,5756.5,3284,5756.5,3293.8z"/>
	</g>
	<g>
		<g>
			<path fill="#FBB03B" d="M5816.7,4106.7c0.2-4.8-3.4-7.5-8-5.8l-44.1,15.9c-4.6,1.6-5.2,5.4-1.2,8.2l43.7,30.2
				c4,2.8,7.6,0.8,7.7-4L5816.7,4106.7z"/>
			<path fill="#F7A537" d="M5809.3,4116.3c0.2-4.8-3.4-7.5-8-5.8l-24.9,8.9c-4.6,1.6-5.1,5.2-1.1,8l25.3,17.5c4,2.8,7.4,1,7.6-3.8
				L5809.3,4116.3z"/>
		</g>
		<g>
			<path fill="#FBB03B" d="M5673.7,4106.7c-0.2-4.8,3.4-7.5,8-5.8l44.2,15.9c4.6,1.6,5.2,5.4,1.2,8.2l-43.7,30.2
				c-4,2.8-7.6,0.8-7.7-4L5673.7,4106.7z"/>
			<path fill="#F7A537" d="M5681.1,4116.3c-0.2-4.8,3.4-7.5,8-5.8l24.9,8.9c4.6,1.6,5.1,5.2,1.1,8l-25.3,17.5c-4,2.8-7.4,1-7.6-3.8
				L5681.1,4116.3z"/>
		</g>
		<ellipse fill="#FBB03B" cx="5744.7" cy="4201.2" rx="95.5" ry="90.1"/>
		<path fill="#FBB03B" d="M5866,4245c0,23.8-22,43-49,43c-27.1,0-49-19.3-49-43c0-23.8,22-43,49-43S5866,4221.3,5866,4245z"/>
		<path fill="#FBB03B" d="M5722.9,4245c0,23.8-22,43-49,43c-27.1,0-49-19.3-49-43c0-23.8,22-43,49-43S5722.9,4221.3,5722.9,4245z"/>
		<g>
			<ellipse fill="#F7A537" cx="5702.4" cy="4183.2" rx="31.8" ry="35.2"/>
			<circle fill="#FFFFFF" cx="5702.4" cy="4184.7" r="21.3"/>
			<ellipse fill="#F15A24" cx="5702.4" cy="4184.7" rx="10.6" ry="15.5"/>
		</g>
		<g>
			<ellipse fill="#F7A537" cx="5784.1" cy="4183.2" rx="26.7" ry="29.6"/>
			<circle fill="#FFFFFF" cx="5784.1" cy="4184.7" r="21.3"/>
			<ellipse fill="#F15A24" cx="5784.1" cy="4184.7" rx="11.5" ry="14.8"/>
		</g>
		<ellipse fill="#F7A537" cx="5744.7" cy="4250.9" rx="49" ry="39.5"/>
		<path fill="#F15A24" d="M5771.8,4237.4c0,9.8-13.1,17.8-29.3,17.8c-16.2,0-29.3-8-29.3-17.8c0-9.8,13.1-17.8,29.3-17.8
			C5758.6,4219.6,5771.8,4227.6,5771.8,4237.4z"/>
	</g>
	<g>
		<g>
			<path fill="#FBB03B" d="M6788.7,3262.7c5.5-7.4-5.4-34-24.5-59.5c-19.1-25.4-39-40.1-44.6-32.7c-5.5,7.4,5.4,34,24.5,59.5
				C6763.2,3255.5,6783.2,3270.1,6788.7,3262.7z"/>
			<path fill="#F7A537" d="M6780.6,3251.8c4.2-5.7-4.1-26-18.7-45.4c-14.5-19.4-29.8-30.6-34-24.9c-4.2,5.7,4.1,26,18.7,45.4
				C6761.1,3246.3,6776.3,3257.5,6780.6,3251.8z"/>
		</g>
		<g>
			<path fill="#FBB03B" d="M6636.6,3170.6c-5.5-7.4-25.5,7.2-44.5,32.7c-19.1,25.4-30,52.1-24.5,59.5c5.5,7.4,25.5-7.2,44.6-32.7
				C6631.2,3204.6,6642.2,3178,6636.6,3170.6z"/>
			<path fill="#F7A537" d="M6628.4,3181.5c-4.2-5.7-19.5,5.5-34,24.9c-14.5,19.4-22.9,39.7-18.7,45.4c4.2,5.7,19.5-5.5,34-24.9
				C6624.3,3207.5,6632.7,3187.2,6628.4,3181.5z"/>
		</g>
		<ellipse fill="#F7A537" cx="6676.5" cy="3315.6" rx="40.7" ry="44.7"/>
		<ellipse fill="#FBB03B" cx="6676.5" cy="3231.3" rx="79.2" ry="86.9"/>
		<ellipse fill="#FBB03B" cx="6710.7" cy="3291.9" rx="40.7" ry="44.7"/>
		<ellipse fill="#FBB03B" cx="6640.9" cy="3291.9" rx="40.7" ry="44.7"/>
		<g>
			<ellipse fill="#F7A537" cx="6634.2" cy="3216.4" rx="26.7" ry="29.6"/>
			<circle fill="#FFFFFF" cx="6634.2" cy="3217.9" r="21.3"/>
			<ellipse fill="#F15A24" cx="6634.2" cy="3217.9" rx="10.6" ry="15.5"/>
		</g>
		<g>
			<ellipse fill="#F7A537" cx="6715.9" cy="3216.4" rx="26.7" ry="29.6"/>
			<circle fill="#FFFFFF" cx="6715.9" cy="3217.9" r="21.3"/>
			<ellipse fill="#F15A24" cx="6715.9" cy="3217.9" rx="11.5" ry="14.8"/>
		</g>
		<path fill="#F15A24" d="M6703.6,3270.6c0,9.8-13.1,17.8-29.3,17.8c-16.2,0-29.3-8-29.3-17.8c0-9.8,13.1-17.8,29.3-17.8
			C6690.4,3252.8,6703.6,3260.8,6703.6,3270.6z"/>
	</g>
	<g>
		<ellipse fill="#F7A537" cx="7161" cy="4750.4" rx="40.7" ry="44.7"/>
		<ellipse fill="#FBB03B" cx="7161" cy="4666.1" rx="79.2" ry="86.9"/>
		<ellipse fill="#FBB03B" cx="7205.1" cy="4741.7" rx="52.3" ry="44.7"/>
		<ellipse fill="#FBB03B" cx="7115.5" cy="4741.7" rx="52.3" ry="44.7"/>
		<g>
			<ellipse fill="#F7A537" cx="7118.7" cy="4651.2" rx="26.7" ry="29.6"/>
			<circle fill="#FFFFFF" cx="7118.7" cy="4652.7" r="21.3"/>
			<circle fill="#F15A24" cx="7118.7" cy="4652.7" r="15.5"/>
			<path fill="#F7931E" d="M7118.7,4628.8c-11.7,0-21.3,9.2-21.3,21c0,0.2,0,0.2,0,0.2h42.5c0,0,0,0,0-0.2
				C7139.9,4638.1,7130.4,4628.8,7118.7,4628.8z"/>
		</g>
		<g>
			<ellipse fill="#F7A537" cx="7200.4" cy="4651.2" rx="26.7" ry="29.6"/>
			<circle fill="#FFFFFF" cx="7200.4" cy="4652.7" r="21.3"/>
			<circle fill="#F15A24" cx="7200.4" cy="4652.7" r="14.8"/>
			<path fill="#F7931E" d="M7200.4,4628.8c-11.7,0-21.3,9.2-21.3,21c0,0.2,0,0.2,0,0.2h42.5c0,0,0,0,0-0.2
				C7221.6,4638.1,7212.1,4628.8,7200.4,4628.8z"/>
		</g>
		<circle fill="#F15A24" cx="7152.3" cy="4708" r="14.4"/>
		<path fill="#F15A24" d="M7183,4708c0,7.9-6.4,14.4-14.4,14.4c-7.9,0-14.4-6.4-14.4-14.4c0-7.9,6.4-14.4,14.4-14.4
			S7183,4700.1,7183,4708z"/>
		<circle fill="#F15A24" cx="7161.6" cy="4714.6" r="11.9"/>
		
			<ellipse transform="matrix(-0.7071 -0.7071 0.7071 -0.7071 8848.8838 12832.2979)" fill="#FBB03B" cx="7082.1" cy="4583.5" rx="38.3" ry="29.6"/>
		<path fill="#FBB03B" d="M7267.6,4555.3c12,12,9.2,34.4-6.4,49.9c-15.5,15.5-37.9,18.4-49.9,6.4s-9.2-34.4,6.4-49.9
			C7233.3,4546.2,7255.6,4543.3,7267.6,4555.3z"/>
		<path fill="#F7A537" d="M7261,4562c9.2,9.2,7,26.2-4.9,38.1c-11.9,11.9-28.9,14-38.1,4.9c-9.2-9.2-7-26.2,4.9-38.1
			C7234.8,4555,7251.8,4552.8,7261,4562z"/>
		
			<ellipse transform="matrix(-0.7071 -0.7071 0.7071 -0.7071 8848.7285 12832.3428)" fill="#F7A537" cx="7082" cy="4583.5" rx="29.2" ry="22.6"/>
	</g>
	<g>
		<g>
			<path fill="#FBB03B" d="M6781.6,5060.9c0.2-4.8-3.4-7.5-8-5.8l-44.1,15.9c-4.6,1.6-5.2,5.4-1.2,8.2l43.7,30.2
				c4,2.8,7.6,0.8,7.7-4L6781.6,5060.9z"/>
			<path fill="#F7A537" d="M6774.2,5070.5c0.2-4.8-3.4-7.5-8-5.8l-24.9,8.9c-4.6,1.6-5.1,5.2-1.1,8l25.3,17.5c4,2.8,7.4,1,7.6-3.8
				L6774.2,5070.5z"/>
		</g>
		<g>
			<path fill="#FBB03B" d="M6638.6,5060.9c-0.2-4.8,3.4-7.5,8-5.8l44.2,15.9c4.6,1.6,5.2,5.4,1.2,8.2l-43.7,30.2
				c-4,2.8-7.6,0.8-7.7-4L6638.6,5060.9z"/>
			<path fill="#F7A537" d="M6646,5070.5c-0.2-4.8,3.4-7.5,8-5.8l24.9,8.9c4.6,1.6,5.1,5.2,1.1,8l-25.3,17.5c-4,2.8-7.4,1-7.6-3.8
				L6646,5070.5z"/>
		</g>
		<ellipse fill="#F7A537" cx="6709.6" cy="5236.6" rx="40.7" ry="44.7"/>
		<ellipse fill="#FBB03B" cx="6709.6" cy="5152.3" rx="79.2" ry="86.9"/>
		<ellipse fill="#FBB03B" cx="6743.8" cy="5212.9" rx="40.7" ry="44.7"/>
		<ellipse fill="#FBB03B" cx="6674" cy="5212.9" rx="40.7" ry="44.7"/>
		<g>
			<ellipse fill="#F7A537" cx="6667.3" cy="5137.4" rx="26.7" ry="29.6"/>
			<circle fill="#FFFFFF" cx="6667.3" cy="5138.9" r="21.3"/>
			<circle fill="#F15A24" cx="6667.3" cy="5138.9" r="15.5"/>
			<path fill="#F7931E" d="M6667.3,5115c-11.7,0-21.3,9.2-21.3,21c0,0.2,0,0.2,0,0.2h42.5c0,0,0,0,0-0.2
				C6688.5,5124.3,6679,5115,6667.3,5115z"/>
		</g>
		<g>
			<ellipse fill="#F7A537" cx="6749" cy="5137.4" rx="26.7" ry="29.6"/>
			<circle fill="#FFFFFF" cx="6749" cy="5138.9" r="21.3"/>
			<circle fill="#F15A24" cx="6749" cy="5138.9" r="14.8"/>
			<path fill="#F7931E" d="M6749,5115c-11.7,0-21.3,9.2-21.3,21c0,0.2,0,0.2,0,0.2h42.5c0,0,0,0,0-0.2
				C6770.2,5124.3,6760.7,5115,6749,5115z"/>
		</g>
		<circle fill="#F15A24" cx="6700.9" cy="5194.2" r="14.4"/>
		<path fill="#F15A24" d="M6731.6,5194.2c0,7.9-6.4,14.4-14.4,14.4c-7.9,0-14.4-6.4-14.4-14.4c0-7.9,6.4-14.4,14.4-14.4
			S6731.6,5186.3,6731.6,5194.2z"/>
		<circle fill="#F15A24" cx="6710.2" cy="5200.8" r="11.9"/>
	</g>
	<g>
		<ellipse fill="#FBB03B" cx="6216.4" cy="5186.3" rx="115.4" ry="95.3"/>
		<ellipse fill="#F7A537" cx="6164.7" cy="5179.1" rx="32.7" ry="36.1"/>
		<circle fill="#FFFFFF" cx="6164.7" cy="5181" r="26"/>
		<ellipse fill="#F15A24" cx="6164.7" cy="5181" rx="9.7" ry="18.9"/>
		<ellipse fill="#F7A537" cx="6264.5" cy="5179.1" rx="32.7" ry="36.1"/>
		<circle fill="#FFFFFF" cx="6264.5" cy="5181" r="26"/>
		<ellipse fill="#F15A24" cx="6266.1" cy="5181" rx="9.7" ry="18.9"/>
		<ellipse fill="#F7A537" cx="6216.4" cy="5257.5" rx="37.7" ry="34.9"/>
		<g>
			<circle fill="#F15A24" cx="6210.3" cy="5249.7" r="9.6"/>
			<circle fill="#F15A24" cx="6221.2" cy="5249.7" r="9.6"/>
			<circle fill="#F15A24" cx="6216.5" cy="5254.1" r="7.9"/>
		</g>
		<g>
			<path fill="#FBB03B" d="M6156.1,5071.4c-3.9-2.8-8.1-1.2-9.2,3.5l-10.8,45.6c-1.1,4.7,1.7,7.3,6.2,5.5l49.2-20.1
				c4.5-1.8,4.8-5.9,0.9-8.7L6156.1,5071.4z"/>
			<path fill="#F7A537" d="M6160,5082.8c-3.9-2.8-8.1-1.2-9.2,3.5l-6.2,25.7c-1.1,4.7,1.6,7.1,6.1,5.3l28.5-11.6
				c4.5-1.8,4.9-5.7,1-8.5L6160,5082.8z"/>
		</g>
		<g>
			<path fill="#FBB03B" d="M6293.2,5076.7c-0.8-4.8-4.9-6.6-9-4.1l-39.9,24.6c-4.1,2.5-4,6.4,0.5,8.3l49,20.6
				c4.5,1.9,7.6-0.8,6.8-5.5L6293.2,5076.7z"/>
			<path fill="#F7A537" d="M6287.9,5087.5c-0.8-4.8-4.9-6.6-9-4.1l-22.6,13.8c-4.1,2.5-3.9,6.2,0.6,8l28.4,11.9
				c4.5,1.9,7.5-0.5,6.7-5.3L6287.9,5087.5z"/>
		</g>
	</g>
	<g>
		<g>
			<path fill="#FBB03B" d="M6754.6,4116.8c0.2-4.8-3.4-7.5-8-5.8l-44.1,15.9c-4.6,1.6-5.2,5.4-1.2,8.2l43.7,30.2
				c4,2.8,7.6,0.8,7.7-4L6754.6,4116.8z"/>
			<path fill="#F7A537" d="M6747.2,4126.4c0.2-4.8-3.4-7.5-8-5.8l-24.9,8.9c-4.6,1.6-5.1,5.2-1.1,8l25.3,17.5c4,2.8,7.4,1,7.6-3.8
				L6747.2,4126.4z"/>
		</g>
		<g>
			<path fill="#FBB03B" d="M6611.6,4116.8c-0.2-4.8,3.4-7.5,8-5.8l44.2,15.9c4.6,1.6,5.2,5.4,1.2,8.2l-43.7,30.2
				c-4,2.8-7.6,0.8-7.7-4L6611.6,4116.8z"/>
			<path fill="#F7A537" d="M6619,4126.4c-0.2-4.8,3.4-7.5,8-5.8l24.9,8.9c4.6,1.6,5.1,5.2,1.1,8l-25.3,17.5c-4,2.8-7.4,1-7.6-3.8
				L6619,4126.4z"/>
		</g>
		<ellipse fill="#FBB03B" cx="6682.6" cy="4211.3" rx="95.5" ry="90.1"/>
		<path fill="#FBB03B" d="M6803.9,4242.3c0,16.7-22,30.2-49,30.2c-27.1,0-49-13.5-49-30.2s22-30.2,49-30.2
			S6803.9,4225.6,6803.9,4242.3z"/>
		<ellipse fill="#FBB03B" cx="6611.7" cy="4242.3" rx="49" ry="30.2"/>
		<g>
			<ellipse fill="#F7A537" cx="6640.3" cy="4193.3" rx="31.8" ry="35.2"/>
			<circle fill="#FFFFFF" cx="6640.3" cy="4194.8" r="21.3"/>
			<ellipse fill="#F15A24" cx="6640.3" cy="4194.8" rx="10.6" ry="15.5"/>
		</g>
		<g>
			<ellipse fill="#F7A537" cx="6722" cy="4193.3" rx="26.7" ry="29.6"/>
			<circle fill="#FFFFFF" cx="6722" cy="4194.8" r="21.3"/>
			<ellipse fill="#F15A24" cx="6722" cy="4194.8" rx="11.5" ry="14.8"/>
		</g>
		<ellipse fill="#F7A537" cx="6682.6" cy="4261" rx="49" ry="39.5"/>
		<path fill="#F15A24" d="M6709.7,4247.5c0,9.8-13.1,17.8-29.3,17.8c-16.2,0-29.3-8-29.3-17.8s13.1-17.8,29.3-17.8
			C6696.5,4229.7,6709.7,4237.7,6709.7,4247.5z"/>
	</g>
</g>
</svg>
